<?xml version="1.0" standalone="no"?>
<!DOCTYPE svg PUBLIC "-//W3C//DTD SVG 1.1//EN" "http://www.w3.org/Graphics/SVG/1.1/DTD/svg11.dtd" >
<svg xmlns="http://www.w3.org/2000/svg">
<metadata></metadata>
<defs>
<font id="roboto_condensedbold_italic" horiz-adv-x="945" >
<font-face units-per-em="2048" ascent="1536" descent="-512" />
<missing-glyph horiz-adv-x="426" />
<glyph horiz-adv-x="0" />
<glyph unicode="&#xd;" horiz-adv-x="426" />
<glyph horiz-adv-x="0" />
<glyph horiz-adv-x="0" />
<glyph horiz-adv-x="35" />
<glyph unicode="&#x9;" horiz-adv-x="35" />
<glyph unicode=" "  horiz-adv-x="426" />
<glyph unicode="&#x09;" horiz-adv-x="426" />
<glyph unicode="&#xa0;" horiz-adv-x="426" />
<glyph unicode="!" horiz-adv-x="490" d="M27 0l52 258h270l-52 -258h-270zM124 506l190 950h278l-190 -950h-278z" />
<glyph unicode="&#x22;" horiz-adv-x="576" d="M140 1009l64 398l25 153h191l-23 -141l-122 -410h-135zM424 1009l65 406l24 145h188l-23 -141l-120 -410h-134z" />
<glyph unicode="#" horiz-adv-x="949" d="M45 410l33 166h186l98 297h-167l33 167h189l137 416h167l-137 -416h108l137 416h167l-137 -416h164l-33 -167h-186l-98 -297h166l-33 -166h-187l-135 -410h-168l135 410h-108l-135 -410h-166l135 410h-165zM431 576h108l98 297h-108z" />
<glyph unicode="$" d="M82 456h277q-24 -145 1 -198.5t85 -53.5q49 0 83.5 48.5t47.5 128.5q13 88 -5.5 134t-78.5 95q-165 89 -232 183t-36 279q27 175 126.5 278t248.5 123l35 212h139l-35 -217q128 -31 187.5 -149.5t29.5 -310.5h-276q19 123 1.5 183t-61.5 60q-46 0 -76.5 -49.5 t-42.5 -130.5q-13 -80 5.5 -125.5t80.5 -96.5q163 -93 229 -188t37 -278q-30 -181 -127 -280.5t-247 -118.5l-31 -199h-139l31 200q-140 24 -216.5 136.5t-40.5 334.5z" />
<glyph unicode="%" horiz-adv-x="1244" d="M209 184l771 1138l115 -74l-771 -1138zM224 1099l15 77q28 140 110 220.5t212 80.5q120 0 173.5 -85.5t27.5 -215.5l-15 -77q-29 -141 -110 -220t-210 -79q-119 0 -174 85.5t-29 213.5zM405 1000q13 -37 55 -37q36 0 65.5 39.5t41.5 96.5l15 77q12 62 -0.5 100t-52.5 38 q-37 0 -67 -40.5t-42 -97.5l-15 -77q-13 -62 0 -99zM607 280l15 77q28 139 110.5 219.5t211.5 80.5q119 0 173 -85.5t28 -214.5l-15 -77q-29 -141 -109.5 -220.5t-209.5 -79.5q-120 0 -175 85.5t-29 214.5zM788 280q-13 -60 3 -99t52 -39q43 0 69.5 38t38.5 100l15 77 q12 61 -1 99t-53 38q-37 0 -67.5 -40t-41.5 -97z" />
<glyph unicode="&#x26;" horiz-adv-x="1132" d="M50 388q19 125 82 204.5t191 176.5q-42 96 -57 171.5t-2 156.5q28 181 132.5 280.5t260.5 99.5q129 0 198 -98t46 -239q-17 -104 -66.5 -180.5t-131.5 -136.5l-78 -60l155 -298q32 55 53.5 116t33.5 130h202q-23 -144 -66.5 -253.5t-115.5 -198.5l135 -259h-312l-41 79 q-76 -51 -147 -75.5t-151 -24.5q-173 0 -262 112.5t-59 296.5zM332 406q-15 -91 11 -145.5t80 -54.5q37 0 76.5 12t80.5 36l-174 340l-2 -1q-33 -50 -49 -94.5t-23 -92.5zM508 1100q-7 -42 1.5 -82t31.5 -88l49 36q51 37 70.5 72.5t27.5 83.5q8 52 -10 89.5t-57 37.5 q-42 0 -72.5 -42.5t-40.5 -106.5z" />
<glyph unicode="'" horiz-adv-x="292" d="M143 1007l60 387l27 166h200l-25 -153l-128 -400h-134z" />
<glyph unicode="(" horiz-adv-x="601" d="M127 567l4 24q65 407 225.5 668.5t334.5 354.5l27 -151q-110 -100 -207.5 -315.5t-151.5 -554.5l-5 -28q-56 -354 -27.5 -560.5t108.5 -310.5l-75 -149q-142 91 -219 360.5t-14 661.5z" />
<glyph unicode=")" horiz-adv-x="598" d="M-75 -306q109 100 206.5 316t152.5 555l5 28q56 351 26 560t-107 312l77 149q145 -90 227 -367t22 -656l-4 -24q-64 -397 -231 -663.5t-345 -358.5z" />
<glyph unicode="*" horiz-adv-x="771" d="M160 691l219 275l-214 92l85 173l205 -127l51 352h172l-90 -358l250 125l15 -175l-256 -93l99 -269l-159 -107l-70 294l-187 -285z" />
<glyph unicode="+" horiz-adv-x="916" d="M82 556l51 254h271l79 396h262l-79 -396h265l-51 -254h-265l-82 -410h-262l82 410h-271z" />
<glyph unicode="," horiz-adv-x="452" d="M-83 -292q44 72 72.5 143t47.5 164l45 226h244l-43 -211q-23 -111 -92 -216t-157 -182z" />
<glyph unicode="-" horiz-adv-x="711" d="M140 514l45 228h457l-45 -228h-457z" />
<glyph unicode="." horiz-adv-x="524" d="M35 0l52 258h270l-52 -258h-270z" />
<glyph unicode="/" horiz-adv-x="603" d="M-116 -125l701 1581h198l-701 -1581h-198z" />
<glyph unicode="0" d="M111 571l63 313q62 315 192 454t316 139q170 0 250 -151.5t22 -441.5l-63 -313q-63 -316 -192 -454t-314 -138q-172 0 -252.5 150.5t-21.5 441.5zM357.5 280q14.5 -74 72.5 -74q50 0 96.5 81.5t83.5 260.5l72 361q38 191 24.5 265.5t-69.5 74.5q-52 0 -100 -82.5 t-82 -257.5l-72 -361q-40 -194 -25.5 -268z" />
<glyph unicode="1" d="M274 0l230 1150l-207 -6l38 190l506 123l-291 -1457h-276z" />
<glyph unicode="2" d="M11 0l31 193l438 503q88 114 129.5 195t53.5 151q15 99 -4.5 153t-76.5 54q-55 0 -97 -68.5t-59 -181.5h-277q34 213 159.5 345.5t309.5 132.5q182 0 268 -115.5t54 -316.5q-24 -144 -94.5 -250.5t-239.5 -295.5l-202 -272h429l-36 -227h-786z" />
<glyph unicode="3" d="M48 400h277q-15 -89 10.5 -141.5t78.5 -52.5q59 0 104 55.5t61 148.5q19 124 -5 173.5t-95 49.5h-134l24 150l11 70h134q60 0 98 53.5t54 151.5q14 89 -6.5 140t-77.5 51q-43 0 -84 -47t-53 -123h-275q29 187 152 292.5t288 105.5q178 0 271 -107.5t62 -307.5 q-17 -105 -75.5 -187.5t-148.5 -129.5q85 -44 120 -130.5t16 -208.5q-34 -211 -165.5 -319t-319.5 -108q-157 0 -256 107t-66 314z" />
<glyph unicode="4" d="M50 318l20 178l631 958l1 2h277l-182 -910h106l-45 -228h-107l-63 -318h-277l63 318h-424zM329 546h191l98 492l-3 1l-11 -16z" />
<glyph unicode="5" d="M71 398l277 15q-17 -104 6.5 -155.5t78.5 -51.5q59 0 97 71t57 188q22 136 4 207.5t-85 71.5q-47 0 -76.5 -31t-48.5 -86l-244 17l196 812h652l-37 -233h-427l-81 -338l3 -1q28 28 71 48t84 22q171 3 237.5 -123t28.5 -364q-36 -219 -155.5 -353.5t-311.5 -134.5 q-158 0 -258 111t-68 308z" />
<glyph unicode="6" d="M96 563l48 300q48 300 203 457t370 157q65 0 115.5 -15.5t101.5 -46.5l-80 -215q-46 23 -82.5 34.5t-89.5 11.5q-88 0 -157 -90.5t-100 -261.5l2 -2q47 41 103 63t122 22q147 0 210 -138.5t28 -356.5q-37 -231 -164.5 -367t-305.5 -136q-182 0 -275 154.5t-49 429.5z M366 292q23 -87 90 -87q50 0 94.5 81t63.5 196q20 127 -1 199t-72 72q-49 0 -86 -18t-64 -52l-19 -123q-29 -181 -6 -268z" />
<glyph unicode="7" d="M184 1228l37 228h809l-37 -228q-225 -255 -308.5 -471t-176.5 -617l-34 -140h-276l33 140q78 334 197.5 599.5t299.5 488.5h-544z" />
<glyph unicode="8" d="M79 398q25 129 93 217t170 135q-70 49 -99 131t-7 189q42 211 158 309t288 98q157 0 239 -106.5t44 -300.5q-25 -121 -84.5 -203t-149.5 -127q78 -52 111.5 -139.5t11.5 -202.5q-45 -221 -167 -320t-303 -99q-167 0 -256.5 108t-48.5 311zM356 258.5q18 -52.5 73 -52.5 q48 0 90 56.5t63 156.5q20 106 1.5 159.5t-70.5 53.5q-49 0 -91.5 -57.5t-61.5 -155.5q-22 -108 -4 -160.5zM501 907.5q12 -48.5 59 -48.5q42 0 74.5 52t51.5 145q19 97 7.5 145t-56.5 48q-43 0 -76 -51t-51 -142q-21 -100 -9 -148.5z" />
<glyph unicode="9" d="M120 41l63 212q48 -25 92 -36t105 -11q70 0 131.5 81.5t86.5 230.5l6 37l-3 2q-41 -51 -89.5 -76t-99.5 -25q-154 0 -222.5 133.5t-30.5 367.5q37 232 167.5 376t304.5 144q172 0 258.5 -153t42.5 -432l-57 -356q-44 -271 -189 -414t-342 -143q-56 0 -116 16t-108 46z M427 744q15 -74 71 -74q40 0 75 24t63 65l27 168q27 168 8 245t-76 77q-50 0 -96 -87t-64 -205q-23 -139 -8 -213z" />
<glyph unicode=":" horiz-adv-x="526" d="M40 0l52 258h270l-52 -258h-270zM204 824l52 258h270l-52 -258h-270z" />
<glyph unicode=";" horiz-adv-x="503" d="M-55 -292q44 72 72.5 143t47.5 164l45 226h244l-43 -211q-23 -111 -92 -216t-157 -182zM194 824l52 258h270l-52 -258h-270z" />
<glyph unicode="&#x3c;" horiz-adv-x="830" d="M67 506l46 230l742 364l-54 -270l-476 -211l392 -207l-54 -271z" />
<glyph unicode="=" horiz-adv-x="947" d="M95 314l46 229h703l-46 -229h-703zM181 746l46 229h703l-46 -229h-703z" />
<glyph unicode="&#x3e;" horiz-adv-x="841" d="M50 141l54 269l483 212l-399 209l54 269l601 -365l-7 -34l-32 -162l-7 -34z" />
<glyph unicode="?" horiz-adv-x="842" d="M149 1069q43 206 168 307t301 101t263 -115.5t48 -312.5q-28 -136 -103 -235t-181 -175q-57 -46 -82 -94t-41 -132h-277q28 138 76.5 201t171.5 160q60 57 100.5 122t58.5 152q19 100 -0.5 150t-78.5 50q-41 0 -85 -46.5t-62 -132.5h-277zM163 0l49 247h273l-49 -247 h-273z" />
<glyph unicode="@" horiz-adv-x="1473" d="M66 478q102 437 338.5 686.5t557.5 249.5q294 0 419.5 -241.5t30.5 -656.5q-51 -223 -178.5 -380t-328.5 -157q-61 0 -99.5 44t-44.5 123l-3 1q-50 -84 -106 -124.5t-122 -40.5q-110 0 -151 119t13 315q73 258 196 407t261 149q93 0 152 -27t117 -79l-4 -4h5l-154 -569 q-25 -101 -20.5 -134t29.5 -33q81 0 157 111t116 279q83 357 6.5 550t-325.5 193q-227 0 -411 -210.5t-267 -570.5q-86 -359 -3 -561t324 -202q63 0 141.5 20t136.5 49l2 -148q-65 -43 -151 -66t-166 -23q-306 0 -436.5 249t-31.5 682zM576.5 221q5.5 -66 49.5 -66 q36 0 71.5 25.5t74.5 96.5q1 7 1.5 9.5t2.5 6.5l136 499q-13 4 -27.5 6.5t-30.5 2.5q-80 0 -139.5 -94t-110.5 -291q-33 -129 -27.5 -195z" />
<glyph unicode="A" horiz-adv-x="1055" d="M-67 0l658 1456h286l74 -1456h-277l-5 311h-330l-128 -311h-278zM433 538h232l-9 533h-3z" />
<glyph unicode="B" horiz-adv-x="1053" d="M19 0l291 1456h406q195 0 291 -100q68 -71 68 -191q0 -49 -11 -107q-23 -112 -78 -189t-145 -114v-3q99 -28 129 -116q16 -48 16 -106q0 -49 -11 -105q-46 -229 -167.5 -327t-333.5 -98h-455zM341 227h178q68 0 114 53.5t65 146.5q12 60 12 104q0 35 -8 59q-18 52 -87 52 h-191zM464 841h130q72 0 120.5 48t67.5 142q10 52 10 89q0 44 -14 66q-26 42 -107 42h-129z" />
<glyph unicode="C" horiz-adv-x="1033" d="M108 584l58 290q58 295 196 449t343 154q207 0 311 -139q78 -105 78 -274q0 -54 -8 -114h-275q11 69 11 122q0 64 -16 104q-29 74 -129 73q-77 0 -138.5 -101t-95.5 -272l-58 -292q-22 -105 -22 -181q1 -57 13 -99q28 -98 122 -98q83 0 132.5 68t87.5 221h275 q-64 -261 -184.5 -388.5t-329.5 -127.5q-200 0 -312 170q-76 115 -76 275q0 75 17 160z" />
<glyph unicode="D" horiz-adv-x="1059" d="M19 0l291 1456h375q197 0 313 -175q79 -120 79 -282q0 -74 -17 -158l-49 -245q-59 -294 -202.5 -445t-353.5 -151h-436zM341 227h143q95 0 154.5 94.5t95.5 274.5l50 247q16 81 16 147q0 80 -24 136q-43 102 -152 102h-83z" />
<glyph unicode="E" horiz-adv-x="931" d="M19 0l291 1456h784l-45 -228h-508l-72 -362h431l-45 -227h-431l-83 -412h509l-45 -227h-786z" />
<glyph unicode="F" horiz-adv-x="929" d="M19 0l291 1456h782l-45 -228h-506l-79 -396h427l-45 -227h-427l-121 -605h-277z" />
<glyph unicode="G" horiz-adv-x="1057" d="M89 506l89 444q55 274 197.5 400.5t356.5 126.5q210 0 300 -119q64 -86 64 -226q0 -55 -10 -119h-268q10 56 10 98q0 52 -16 83q-29 55 -117 55q-83 0 -146.5 -73t-93.5 -224l-89 -446q-18 -87 -18 -146q0 -56 16 -88q32 -66 130 -66q67 0 103.5 23t68.5 68l53 261h-153 l40 200h430l-112 -557q-77 -91 -192.5 -156.5t-282.5 -65.5q-203 0 -307 137q-70 91 -70 236q0 70 17 154z" />
<glyph unicode="H" horiz-adv-x="1142" d="M19 0l291 1456h277l-125 -626h380l125 626h276l-291 -1456h-276l120 603h-380l-120 -603h-277z" />
<glyph unicode="I" horiz-adv-x="508" d="M30 0l291 1456h277l-291 -1456h-277z" />
<glyph unicode="J" horiz-adv-x="940" d="M54 427h277q-15 -75 -15 -122q0 -34 8 -53q18 -46 80 -46q54 0 96 60t66 178l202 1012h276l-202 -1012q-47 -233 -177 -349t-306 -116q-174 0 -262 113q-58 74 -58 197q0 63 15 138z" />
<glyph unicode="K" horiz-adv-x="1011" d="M18 0l291 1456h278l-119 -594h78l305 594h361l-475 -721l195 -735h-317l-125 602h-74l-120 -602h-278z" />
<glyph unicode="L" horiz-adv-x="902" d="M19 0l291 1456h277l-246 -1229h472l-45 -227h-749z" />
<glyph unicode="M" horiz-adv-x="1359" d="M14 0l291 1456h359l3 -1073l3 -1l435 1074h361l-291 -1456h-276l85 423l126 521l-3 1l-423 -945h-183l-43 933h-3l-80 -510l-85 -423h-276z" />
<glyph unicode="N" horiz-adv-x="1141" d="M19 0l291 1456h277l196 -891h3l179 891h276l-291 -1456h-276l-196 893h-3l-179 -893h-277z" />
<glyph unicode="O" horiz-adv-x="1109" d="M112 600l52 259q59 295 206 456.5t363 161.5q205 -1 321 -179q80 -123 80 -286q0 -74 -16 -157l-52 -259q-59 -295 -211 -456t-369 -161q-204 0 -316 177q-76 120 -76 280q0 77 18 164zM387 600q-18 -89 -18 -159q1 -75 21 -129q40 -104 141 -105q88 0 155 106t103 283 l52 261q16 82 16 148q1 79 -23 137q-44 106 -146 106q-88 0 -150.5 -104t-98.5 -283z" />
<glyph unicode="P" horiz-adv-x="1074" d="M19 0l291 1456h468q188 0 284 -130q67 -91 66 -219q0 -55 -12 -118q-46 -227 -183 -347t-342 -120h-191l-104 -522h-277zM446 750h191q71 0 126 67.5t75 169.5q11 54 11 97q0 47 -13 80q-25 64 -103 64h-191z" />
<glyph unicode="Q" horiz-adv-x="1123" d="M112 600l52 259q59 295 206 456.5t363 161.5q205 0 321 -179q81 -122 81 -286q0 -74 -17 -157l-52 -259q-33 -164 -95.5 -286t-153.5 -203l145 -200l-205 -158l-169 241q-26 -5 -51 -8t-51 -3q-203 0 -316 177q-76 120 -76 280q0 77 18 164zM387 600q-18 -89 -18 -159 q0 -76 21 -129q39 -105 141 -105q88 0 155 106t103 283l52 261q16 82 16 148q0 80 -23 137q-44 106 -146 106q-88 0 -150.5 -104t-98.5 -283z" />
<glyph unicode="R" horiz-adv-x="1054" d="M20 0l291 1455h462q183 0 267 -110q57 -74 58 -190q0 -56 -14 -123q-27 -132 -93 -208t-177 -124q97 -40 122 -126q12 -42 12 -94q0 -57 -14 -128l-20 -103q-13 -66 -13 -129q0 -60 25 -92l-6 -28h-284q-21 26 -21 75q0 11 1 25q6 68 22 151l20 99q13 64 13 109 q0 39 -10 65q-21 54 -92 55h-156l-116 -579h-277zM458 806h159q66 0 116 53.5t70 150.5q10 55 10.5 96t-10.5 68q-21 54 -92 54h-168z" />
<glyph unicode="S" horiz-adv-x="1005" d="M85 429h277q-9 -45 -9 -80q0 -67 32 -97q49 -46 132 -46q47 0 93 42t59 105q8 39 8 70q1 49 -19 79q-32 48 -133 108q-195 83 -279 194q-59 77 -59 190q0 49 11 106q37 184 164.5 280.5t308.5 96.5q191 -1 293 -119q72 -84 72 -215q0 -54 -12 -117h-276q8 40 8 73 q0 55 -21 91q-34 60 -109 59q-49 0 -94 -42.5t-57 -104.5q-7 -33 -6 -61q1 -51 23 -79q36 -44 163 -113q179 -79 253 -190q49 -74 50 -183q0 -56 -13 -121q-39 -191 -163.5 -283.5t-309.5 -92.5q-189 0 -312 107q-88 77 -88 221q0 56 13 122z" />
<glyph unicode="T" horiz-adv-x="1021" d="M207 1228l45 228h928l-45 -228h-328l-245 -1228h-275l245 1228h-325z" />
<glyph unicode="U" horiz-adv-x="1084" d="M99 465l198 991h273l-198 -991q-14 -67 -14 -116q0 -55 18 -85q33 -58 122 -58q84 0 143 59.5t87 199.5l198 991h275l-198 -991q-51 -253 -194.5 -369.5t-355.5 -116.5q-195 1 -298 127q-71 87 -71 223q0 63 15 136z" />
<glyph unicode="V" horiz-adv-x="1050" d="M181 1456h291l30 -1084l2 -55h3l18 52l379 1087h290l-597 -1456h-286z" />
<glyph unicode="W" horiz-adv-x="1339" d="M204 0l21 1456h264l-34 -826l3 -1l278 827h192l14 -827h3l232 827h262l-444 -1456h-252l-16 796l-3 1l-269 -797h-251z" />
<glyph unicode="X" horiz-adv-x="1045" d="M-45 0l437 734l-198 722h319l78 -512h3l246 512h320l-430 -722l219 -734h-335l-84 523h-3l-251 -523h-321z" />
<glyph unicode="Y" horiz-adv-x="1011" d="M220 1456h300l73 -583l3 -1l306 584h301l-546 -936l-104 -520h-274l109 544z" />
<glyph unicode="Z" horiz-adv-x="927" d="M6 143l642 1086h-411l45 227h739l-27 -138l-646 -1091h483l-45 -227h-774z" />
<glyph unicode="[" horiz-adv-x="510" d="M-23 -339l325 2034h372l-35 -217h-93l-256 -1601h93l-34 -216h-372z" />
<glyph unicode="\" horiz-adv-x="712" d="M211 1456h273l149 -1581h-275z" />
<glyph unicode="]" horiz-adv-x="510" d="M-94 -339l34 216h95l256 1601h-95l35 217h374l-325 -2034h-374z" />
<glyph unicode="^" horiz-adv-x="733" d="M102 729l373 727h199l83 -727h-211l-31 422v2l-3 1l-1 -3l-197 -422h-212z" />
<glyph unicode="_" horiz-adv-x="742" d="M-112 -220l44 220h705l-44 -220h-705z" />
<glyph unicode="`" horiz-adv-x="601" d="M234 1477h295l114 -266h-219z" />
<glyph unicode="a" horiz-adv-x="875" d="M34 302q35 173 139 254t295 81h87l18 88q10 49 10 82q0 26 -6 43q-13 39 -59 39q-36 0 -60.5 -33.5t-37.5 -98.5h-277q32 159 147.5 252t287.5 93q148 0 228 -98q56 -68 55 -176q0 -48 -11 -105l-88 -438q-18 -84 -20 -148q-1 -15 0 -31q0 -50 6 -106h-275 q-5 28 -7.5 57.5t-1.5 57.5l-3 1q-46 -62 -101.5 -99t-120.5 -37q-115 0 -175 88q-40 58 -40 142q0 43 10 92zM313 315q-6 -28 -6 -49q-1 -24 7 -42q14 -32 49 -31q31 0 62.5 20t55.5 54l42 207h-87q-48 0 -78.5 -44.5t-44.5 -114.5z" />
<glyph unicode="b" horiz-adv-x="922" d="M3 0l312 1560h276l-108 -536l3 -1q38 38 82 58.5t93 20.5q154 0 214 -164q32 -89 32 -205q0 -99 -23 -217l-4 -21q-54 -268 -149.5 -392t-261.5 -124q-64 0 -112.5 31t-78.5 92l-35 -102h-240zM329 255q12 -26 35.5 -37t61.5 -11q70 0 108.5 69.5t69.5 218.5l4 21 q31 156 31 244q-1 13 -1 25q-6 89 -78 89q-35 0 -67 -27.5t-61 -77.5z" />
<glyph unicode="c" horiz-adv-x="856" d="M64 470l22 139q37 230 156 361.5t316 131.5q160 0 242 -114q56 -78 56 -197q0 -54 -12 -116h-257q10 49 10 86q0 33 -8 59q-17 54 -72 54q-69 0 -101 -68t-53 -197l-22 -139q-16 -98 -17 -158q0 -25 4 -43q10 -63 82 -63q48 0 84.5 44.5t44.5 126.5h257 q-22 -179 -143 -288t-274 -109q-188 0 -269 136q-57 95 -57 229q0 59 11 125z" />
<glyph unicode="d" horiz-adv-x="922" d="M76 534l4 21q55 278 156.5 412.5t262.5 134.5q53 0 96 -25t76 -73l111 556h278l-312 -1560h-240l4 88l-3 2q-46 -54 -97.5 -82.5t-107.5 -28.5q-147 0 -212 157q-37 90 -37 206q0 88 21 192zM328 290q10 -83 78 -83q32 0 63 23t61 68l102 512q-13 32 -35 48t-54 16 q-63 0 -110 -84.5t-77 -234.5l-4 -21q-26 -125 -26 -203q0 -22 2 -41z" />
<glyph unicode="e" horiz-adv-x="868" d="M70 451l24 152q37 233 155 366t304 133q173 0 249 -126q52 -86 52 -218q0 -60 -11 -129l-28 -174h-469v-4q-8 -51 -8 -92q0 -52 13 -88q24 -65 105 -65q87 0 140 20t107 58l24 -196q-58 -50 -147 -79t-193 -29q-176 0 -263 133q-63 96 -63 231q0 51 9 107zM377 645h198 l7 40q8 50 8 86q0 35 -7 57q-14 46 -66 46q-53 0 -86 -60.5t-54 -168.5z" />
<glyph unicode="f" horiz-adv-x="612" d="M60 0l175 876h-116l41 206h116l24 120q40 198 142 288.5t269 90.5q28 0 58.5 -5.5t66.5 -15.5l-66 -218q-15 4 -32 7t-39 3q-44 0 -75 -38.5t-46 -111.5l-24 -120h150l-41 -206h-150l-175 -876h-278z" />
<glyph unicode="g" horiz-adv-x="922" d="M-20 -354l93 219q46 -32 94.5 -48t111.5 -16q72 0 124.5 62.5t74.5 172.5l3 15l-3 2q-39 -37 -82 -55.5t-91 -18.5q-147 0 -213 157q-37 90 -37 207q0 88 21 191l4 21q55 277 157 412t263 135q62 0 109.5 -30.5t79.5 -89.5l34 100h242l-209 -1047q-47 -234 -181.5 -353 t-340.5 -119q-61 0 -129.5 22.5t-124.5 60.5zM330 290q9 -83 77 -83q34 0 64 20.5t57 59.5l108 537q-13 26 -35 38t-56 12q-64 0 -111 -84.5t-77 -234.5l-4 -21q-26 -125 -26 -203q0 -22 3 -41z" />
<glyph unicode="h" horiz-adv-x="922" d="M-4 0l312 1560h276l-116 -580l3 -1q48 59 104 91t118 32q125 0 179 -114q29 -61 29 -159q0 -84 -22 -195l-127 -634h-277l127 636q19 96 19 149q0 27 -5 43q-15 46 -74 46q-30 0 -56 -14.5t-51 -42.5l-163 -817h-276z" />
<glyph unicode="i" horiz-adv-x="477" d="M15 0l216 1082h276l-216 -1082h-276zM284 1343l43 217h276l-43 -217h-276z" />
<glyph unicode="j" horiz-adv-x="467" d="M-220 -419l56 223q19 -6 34 -9t36 -3q34 0 63 44t45 131l223 1115h276l-223 -1115q-42 -210 -141 -307t-253 -97q-31 0 -58 4.5t-58 13.5zM285 1345l43 215h277l-43 -215h-277z" />
<glyph unicode="k" horiz-adv-x="900" d="M3 0l312 1560h277l-177 -886h46l217 408h318l-336 -482l148 -600h-316l-77 450h-45l-90 -450h-277z" />
<glyph unicode="l" horiz-adv-x="477" d="M15 0l312 1560h276l-312 -1560h-276z" />
<glyph unicode="m" horiz-adv-x="1375" d="M6 0l216 1082h256l-13 -113l2 -1q51 64 113.5 99t137.5 35q66 0 111.5 -39.5t62.5 -121.5q53 78 118.5 119.5t146.5 41.5q115 0 167 -110q27 -58 27 -150q0 -80 -21 -185l-131 -657h-277l131 657q18 92 18 140q1 21 -3 35q-12 42 -61 42q-32 -1 -59.5 -19t-51.5 -51 q-2 -20 -5 -41t-8 -50l-143 -713h-277l132 659q18 89 18 137q-1 22 -5 36q-12 42 -61 42q-27 0 -53 -15.5t-50 -44.5l-163 -814h-275z" />
<glyph unicode="n" horiz-adv-x="922" d="M-2 0l216 1082h258l-14 -124l2 -2q54 70 117 108t134 38q117 0 169 -104q28 -56 29 -146q0 -77 -21 -180l-134 -672h-277l134 672q14 72 14 115q-1 31 -7 47q-16 40 -74 40q-28 0 -55 -16.5t-52 -47.5l-162 -810h-277z" />
<glyph unicode="o" horiz-adv-x="922" d="M67 473l21 134q36 231 159 363t319 132q186 0 271 -138q60 -97 60 -236q0 -57 -10 -121l-21 -134q-38 -233 -160 -363t-317 -130q-188 0 -273 136q-60 96 -60 233q0 58 11 124zM336 272q15 -66 89 -66q66 0 105 70.5t60 196.5l21 134q12 75 12 129q-1 40 -7 70 q-16 68 -86 68q-68 0 -107.5 -72t-58.5 -195l-21 -134q-13 -80 -13 -135q0 -39 6 -66z" />
<glyph unicode="p" horiz-adv-x="922" d="M-80 -416l299 1498h258l-8 -71l2 -2q42 45 89.5 69t100.5 24q148 0 211 -166q34 -93 34 -213q0 -95 -22 -208l-4 -21q-53 -264 -152 -389.5t-259 -125.5q-56 0 -100 22t-76 67l-97 -484h-276zM329 250q12 -23 35 -33.5t60 -10.5q64 0 107.5 73t72.5 215l4 21 q27 134 27 221q0 23 -2 43q-9 95 -75 95q-33 0 -64.5 -26.5t-59.5 -74.5z" />
<glyph unicode="q" horiz-adv-x="922" d="M76 534l4 21q55 278 156.5 412.5t262.5 134.5q61 0 107 -32t78 -91l38 103h240l-299 -1498h-278l94 472l-3 1q-39 -38 -82 -58t-90 -20q-147 0 -212 157q-37 90 -37 206q0 88 21 192zM328 290q10 -84 78 -84q33 0 62.5 20.5t56.5 59.5l107 534q-12 27 -34 40.5t-55 13.5 q-63 0 -110 -84.5t-77 -234.5l-4 -21q-26 -125 -26 -203q0 -23 2 -41z" />
<glyph unicode="r" horiz-adv-x="617" d="M3 0l216 1082h259l-17 -128l3 -1q39 73 85.5 111t100.5 38q16 0 35.5 -3.5t34.5 -8.5l-82 -267l-100 3q-34 0 -61 -20t-49 -58l-149 -748h-276z" />
<glyph unicode="s" horiz-adv-x="825" d="M21 340h260q-5 -31 -5 -55q0 -45 16 -69q24 -36 82 -37q44 0 72 27.5t36 76.5q2 12 2 23q0 33 -18 57q-24 31 -106 82q-141 61 -202 137q-46 57 -46 142q0 28 5 59q22 140 130.5 229.5t271.5 89.5q161 0 246 -96q66 -75 67 -186q0 -31 -6 -65h-274q5 30 5 55q0 33 -9 55 q-15 38 -62 38q-34 0 -65 -31t-37 -75q-3 -15 -3 -28q-1 -30 15 -49q22 -27 106 -81q149 -59 209 -137q44 -57 44 -144q0 -31 -5 -65q-24 -146 -134.5 -229.5t-280.5 -83.5q-168 0 -252 108q-67 86 -67 194q0 28 5 58z" />
<glyph unicode="t" horiz-adv-x="571" d="M114 333l108 543h-102l41 206h102l54 269h277l-54 -269h128l-41 -206h-128l-108 -542q-9 -45 -10 -72q0 -16 4 -26q9 -26 37 -25q18 0 31.5 2t28.5 8l-20 -212q-37 -14 -76 -21.5t-82 -7.5q-120 0 -174 84q-31 49 -32 133q0 60 16 136z" />
<glyph unicode="u" horiz-adv-x="922" d="M82 428l130 654h277l-131 -656q-17 -84 -17 -132q0 -23 4 -39q12 -47 59 -47q35 0 66.5 16t60.5 49l161 809h276l-216 -1082h-242l8 108l-3 1q-51 -64 -111.5 -96.5t-132.5 -32.5q-125 0 -181 109q-30 59 -30 154q0 80 22 185z" />
<glyph unicode="v" horiz-adv-x="848" d="M123 1082h291l-6 -674l-2 -70l3 -1l23 71l207 674h290l-441 -1082h-271z" />
<glyph unicode="w" horiz-adv-x="1173" d="M140 0l19 1082h255l-43 -622h3l253 622h178l5 -624h3l204 624h257l-414 -1082h-230l-6 608l-3 1l-250 -609h-231z" />
<glyph unicode="x" horiz-adv-x="848" d="M-48 0l331 547l-153 535h309l29 -344h3l145 344h311l-321 -535l156 -547h-310l-37 354h-3l-150 -354h-310z" />
<glyph unicode="y" horiz-adv-x="848" d="M-81 -413l76 212l19.5 -4.5t14.5 -1.5q52 0 84 28.5t60 89.5l36 76l-67 1095h297l-22 -604h3l249 604h297l-576 -1245q-53 -113 -134 -193.5t-213 -80.5q-32 0 -56 5.5t-68 18.5z" />
<glyph unicode="z" horiz-adv-x="823" d="M-17 0l34 169l504 685h-358l45 228h669l-33 -165l-508 -690h372l-45 -227h-680z" />
<glyph unicode="{" horiz-adv-x="551" d="M59 514l24 151h1l8 51q59 0 97.5 54.5t54.5 154.5l33 207q28 180 109 294.5t247 170.5l27 -157q-58 -32 -89 -108t-50 -200l-33 -207q-19 -112 -68.5 -190.5t-136.5 -122.5q69 -48 95.5 -126.5t10.5 -180.5l-33 -206q-21 -128 -14.5 -201.5t55.5 -105.5l-79 -158 q-146 56 -190.5 174t-15.5 291l33 206q16 104 -4 156.5t-82 52.5z" />
<glyph unicode="|" horiz-adv-x="452" d="M34 -270l276 1726h159l-276 -1726h-159z" />
<glyph unicode="}" horiz-adv-x="551" d="M-52 -208q57 32 87.5 107.5t50.5 199.5l33 206q18 111 68.5 189.5t138.5 122.5q-72 46 -98.5 125t-9.5 183l33 207q20 128 13 202t-54 106l78 157q145 -56 190 -173.5t17 -291.5l-33 -207q-17 -105 3 -157t83 -52l-9 -54l-15 -94l-9 -54q-60 0 -98.5 -55t-53.5 -154 l-33 -206q-29 -179 -110.5 -294t-246.5 -171z" />
<glyph unicode="~" horiz-adv-x="1026" d="M86 444q28 175 111 278t196 103q61 0 114 -33.5t98 -98.5q26 -48 46.5 -66.5t50.5 -18.5t60.5 52t43.5 129l184 -28q-29 -174 -114 -278.5t-195 -104.5q-64 0 -113 31t-96 102q-28 46 -49 65.5t-51 19.5q-31 0 -61 -51.5t-42 -126.5z" />
<glyph unicode="&#xa2;" horiz-adv-x="957" d="M93 470l22 139q33 211 137 339.5t276 149.5l44 220h179l-48 -236q106 -40 152.5 -144.5t17.5 -262.5h-257q19 92 2 145.5t-72 53.5q-69 0 -101 -68t-53 -197l-22 -139q-23 -138 -13.5 -201t82.5 -63q48 0 84.5 44.5t44.5 126.5h257q-19 -154 -114 -258t-226 -131 l-47 -233h-179l48 239q-135 37 -189.5 164t-24.5 312z" />
<glyph unicode="&#xa3;" horiz-adv-x="978" d="M59 0l45 227h7q32 12 63 94t49 172l16 95h-111l45 228h104l35 209q46 229 161 340.5t285 111.5q165 0 245 -114t43 -302h-277q20 105 1.5 146.5t-58.5 41.5q-36 0 -69 -58t-54 -166l-35 -209h242l-45 -228h-234l-13 -79q-17 -85 -56.5 -155t-101.5 -127h536l-45 -227 h-778z" />
<glyph unicode="&#xa5;" horiz-adv-x="1002" d="M96 283l32 163h235l25 126h-235l33 165h188l-141 719h301l66 -530l3 -1l278 531h300l-428 -719h163l-33 -165h-218l-25 -126h218l-32 -163h-219l-56 -283h-277l56 283h-234z" />
<glyph unicode="&#xa8;" horiz-adv-x="939" d="M270 1258l32 198h237l-32 -198h-237zM678 1258l32 198h238l-32 -198h-238z" />
<glyph unicode="&#xa9;" horiz-adv-x="1310" d="M128 729q53 334 247 540.5t439 206.5q230 0 364 -215t84 -532q-54 -335 -249.5 -542.5t-437.5 -207.5q-232 0 -365.5 215.5t-81.5 534.5zM234 729q-46 -282 57.5 -456.5t302.5 -174.5q187 0 352.5 181.5t208.5 449.5q44 280 -59.5 453.5t-300.5 173.5q-189 0 -354 -180.5 t-207 -446.5zM390 669l19 119q29 183 119.5 285t224.5 102q127 0 188 -79.5t37 -234.5h-140q16 102 -9.5 143.5t-96.5 41.5q-69 0 -118 -70.5t-67 -186.5l-19 -120q-21 -125 4.5 -192t98.5 -67q67 0 107 43t56 143h140q-27 -164 -109 -239t-215 -75q-127 0 -188 105.5 t-32 281.5z" />
<glyph unicode="&#xab;" horiz-adv-x="846" d="M70 506l1 6l3 13l286 389h170l-252 -399l93 -397h-170zM396 506l1 6l3 13l286 389h170l-252 -399l93 -397h-170z" />
<glyph unicode="&#xad;" horiz-adv-x="711" d="M140 514l45 228h457l-45 -228h-457z" />
<glyph unicode="&#xae;" horiz-adv-x="1309" d="M128 729q53 334 248 540.5t439 206.5q230 0 364.5 -215t84.5 -532q-54 -335 -249.5 -542.5t-438.5 -207.5q-232 0 -366 215.5t-82 534.5zM236 729q-46 -282 57 -456.5t302 -174.5q187 0 352 181t208 450q44 280 -59 453.5t-300 173.5q-189 0 -353.5 -180t-206.5 -447z M385 316l136 850h231q119 0 181 -67.5t42 -193.5q-10 -62 -40 -104.5t-83 -72.5q44 -32 57.5 -85.5t2.5 -127.5l-9 -56q-7 -44 -9 -75t3 -52l-2 -16h-138q-4 22 0.5 63.5t11.5 80.5l8 54q12 77 -6.5 109t-77.5 32h-119l-54 -339h-135zM594 783h96q57 0 99 31t52 90 q12 78 -11.5 106t-98.5 28h-96z" />
<glyph unicode="&#xb4;" horiz-adv-x="655" d="M224 1212l200 266h296l-276 -266h-220z" />
<glyph unicode="&#xb8;" horiz-adv-x="469" d="M-48 -462l27 163q27 0 46 20t28 64q8 46 -9 61t-73 20l53 141h206l-20 -59q45 -11 68 -51.5t7 -121.5q-24 -118 -107 -177.5t-226 -59.5z" />
<glyph unicode="&#xbb;" horiz-adv-x="847" d="M4 152l251 398l-91 399h169l131 -389l-2 -6h1l-3 -13l-287 -389h-169zM343 152l251 398l-91 399h169l131 -389l-2 -6h1l-3 -13l-287 -389h-169z" />
<glyph unicode="&#x2c6;" horiz-adv-x="854" d="M279 1252l5 25l282 237h150l189 -240l-5 -22h-198l-84 149l-144 -149h-195z" />
<glyph unicode="&#x2da;" horiz-adv-x="580" d="M284 1299q17 87 78.5 138.5t141.5 51.5q72 0 114 -55t27 -135q-18 -89 -77.5 -137.5t-138.5 -48.5q-74 0 -118 52.5t-27 133.5zM387 1299q-9 -46 7.5 -70.5t52.5 -24.5q33 0 59.5 26t35.5 69q9 47 -6 72t-51 25q-33 0 -61.5 -27.5t-36.5 -69.5z" />
<glyph unicode="&#x2dc;" horiz-adv-x="817" d="M247 1272q15 98 71.5 163.5t131.5 65.5q38 0 108 -44t110 -44q24 0 46.5 32.5t30.5 80.5l134 -45q-17 -101 -72.5 -164.5t-131.5 -63.5q-50 0 -114 44t-104 44q-23 0 -44.5 -32.5t-28.5 -79.5z" />
<glyph unicode="&#x400;" horiz-adv-x="931" d="M19 0l291 1456h784l-45 -228h-508l-72 -362h431l-45 -227h-431l-83 -412h509l-45 -227h-786zM429 1825h295l114 -266h-219z" />
<glyph unicode="&#x401;" horiz-adv-x="931" d="M19 0l291 1456h784l-45 -228h-508l-72 -362h431l-45 -227h-431l-83 -412h509l-45 -227h-786zM383 1606l32 198h237l-32 -198h-237zM791 1606l32 198h238l-32 -198h-238z" />
<glyph unicode="&#x402;" horiz-adv-x="1207" d="M194 1228l45 228h872l-45 -228h-337l-72 -362q47 13 87 20.5t80 7.5q188 0 283.5 -114.5t50.5 -339.5q-42 -206 -169 -332t-366 -126l43 214q103 0 147 63.5t65 165.5q24 119 0 179.5t-100 60.5q-43 0 -82.5 -4.5t-82.5 -12.5l-129 -648h-277l245 1228h-258z" />
<glyph unicode="&#x403;" horiz-adv-x="909" d="M20 0l291 1456h748l-45 -228h-470l-246 -1228h-278zM573 1560l200 266h296l-276 -266h-220z" />
<glyph unicode="&#x404;" horiz-adv-x="1002" d="M96 585l58 290q58 295 196 449t343 154q207 0 310.5 -139t70.5 -388h-275q24 152 -5 225.5t-129 73.5q-77 0 -138.5 -101t-95.5 -272l-7 -33h310l-46 -227h-309l-6 -32q-38 -183 -9.5 -280.5t122.5 -97.5q83 0 132.5 68t87.5 221h275q-64 -261 -184.5 -388.5 t-329.5 -127.5q-200 0 -312 170t-59 435z" />
<glyph unicode="&#x405;" horiz-adv-x="1028" d="M85 429h277q-26 -130 23 -176.5t132 -46.5q47 0 93 42t59 105q20 101 -11.5 148.5t-132.5 108.5q-195 83 -279.5 194t-47.5 296q37 184 164.5 280.5t308.5 96.5q192 0 293.5 -118.5t59.5 -332.5h-276q21 104 -13 163.5t-109 59.5q-49 0 -94 -42.5t-57 -104.5 q-19 -96 16.5 -140t163.5 -113q179 -79 253.5 -190t36.5 -304q-39 -191 -163.5 -283.5t-309.5 -92.5q-189 0 -312 107t-75 343z" />
<glyph unicode="&#x406;" horiz-adv-x="508" d="M30 0l291 1456h277l-291 -1456h-277z" />
<glyph unicode="&#x407;" horiz-adv-x="508" d="M30 0l291 1456h277l-291 -1456h-277zM165 1606l32 198h237l-32 -198h-237zM573 1606l32 198h238l-32 -198h-238z" />
<glyph unicode="&#x408;" horiz-adv-x="940" d="M54 427h277q-26 -129 -7.5 -175t80.5 -46q54 0 96 60t66 178l202 1012h276l-202 -1012q-47 -233 -177 -349t-306 -116q-174 0 -262 112.5t-43 335.5z" />
<glyph unicode="&#x409;" horiz-adv-x="1680" d="M-38 0l45 227h30q103 0 164 121t123 454l123 654h797l-102 -507h156q188 0 285.5 -133.5t56.5 -340.5q-46 -227 -186.5 -351t-345.5 -124h-432l245 1228h-240l-80 -426q-82 -434 -232 -618t-375 -184h-32zM998 227h155q72 0 131.5 73t80.5 177q22 109 -6.5 177t-106.5 68 h-155z" />
<glyph unicode="&#x40a;" horiz-adv-x="1681" d="M20 0l291 1456h277l-124 -620h380l124 620h277l-103 -516h155q188 0 286 -131.5t57 -337.5q-45 -225 -185.5 -348t-345.5 -123h-432l121 609h-380l-121 -609h-277zM1000 228h155q72 0 130.5 71t79.5 174q21 108 -7 174t-106 66h-155z" />
<glyph unicode="&#x40b;" horiz-adv-x="1228" d="M193 0l245 1228h-238l45 228h849l-45 -228h-334l-63 -318q38 6 72.5 9.5t57.5 3.5q204 0 304.5 -118t52.5 -362l-89 -443h-276l89 443q30 154 0.5 203.5t-127.5 49.5q-22 0 -57 -3.5t-73 -9.5l-136 -683h-277z" />
<glyph unicode="&#x40c;" horiz-adv-x="1050" d="M18 0l291 1456h278l-119 -594h78l305 594h361l-475 -721l195 -735h-317l-125 602h-74l-120 -602h-278zM549 1472l200 266h296l-276 -266h-220z" />
<glyph unicode="&#x40d;" horiz-adv-x="1126" d="M8 0l291 1456h276l-173 -867l2 -1l549 868h277l-291 -1456h-277l172 864l-2 1l-548 -865h-276zM514 1825h295l114 -266h-219z" />
<glyph unicode="&#x40e;" horiz-adv-x="1025" d="M143 -17l42 227q6 -3 25 -3.5t32 -0.5q55 0 90 35.5t64 109.5l22 49h-4l-168 1056h295l59 -653l3 -1l305 654h290l-594 -1173q-87 -149 -169 -226.5t-208 -77.5q-18 0 -43 1.5t-41 2.5zM501 1897h193q-10 -63 7.5 -99.5t71.5 -36.5q50 0 80.5 38t40.5 98h194 q-23 -141 -113 -218.5t-227 -77.5q-132 0 -200.5 81t-46.5 215z" />
<glyph unicode="&#x40f;" horiz-adv-x="1130" d="M5 0l291 1456h277l-246 -1229h380l246 1229h278l-291 -1456h-318l-71 -359h-277l71 359h-340z" />
<glyph unicode="&#x410;" horiz-adv-x="1055" d="M-67 0l658 1456h286l74 -1456h-277l-5 311h-330l-128 -311h-278zM433 538h232l-9 533h-3z" />
<glyph unicode="&#x411;" horiz-adv-x="1015" d="M17 0l291 1456h749l-45 -228h-470l-62 -308h156q190 0 289 -125t58 -330q-46 -226 -185.5 -345.5t-345.5 -119.5h-435zM341 227h156q72 0 130.5 68.5t79.5 171.5q21 107 -8 166.5t-108 59.5h-156z" />
<glyph unicode="&#x412;" horiz-adv-x="1053" d="M19 0l291 1456h406q195 0 291 -99.5t57 -298.5q-23 -112 -78 -189t-145 -114v-3q99 -27 129 -115.5t5 -211.5q-46 -229 -167.5 -327t-333.5 -98h-455zM341 227h178q68 0 114 53.5t65 146.5q22 110 4 162.5t-87 52.5h-191zM464 841h130q72 0 120.5 48t67.5 142 q22 112 -3.5 154.5t-107.5 42.5h-129z" />
<glyph unicode="&#x413;" horiz-adv-x="909" d="M20 0l291 1456h748l-45 -228h-470l-246 -1228h-278z" />
<glyph unicode="&#x414;" horiz-adv-x="1222" d="M-117 -357l100 584h90q70 57 136 199t132 444l152 586h770l-246 -1229h137l-140 -584h-253l71 357h-617l-71 -357h-261zM361 227h379l200 1001h-230l-92 -358q-52 -231 -115.5 -383.5t-141.5 -259.5z" />
<glyph unicode="&#x415;" horiz-adv-x="931" d="M19 0l291 1456h784l-45 -228h-508l-72 -362h431l-45 -227h-431l-83 -412h509l-45 -227h-786z" />
<glyph unicode="&#x416;" horiz-adv-x="1657" d="M-55 0l494 810l-189 646h343l90 -594h108l119 594h275l-119 -594h105l320 594h343l-442 -647l165 -809h-344l-75 604h-124l-120 -604h-275l120 604h-127l-324 -604h-343z" />
<glyph unicode="&#x417;" horiz-adv-x="1009" d="M59 404h277q-19 -93 10 -145.5t96 -52.5q70 0 126.5 57.5t74.5 146.5q25 127 0.5 174.5t-100.5 47.5h-136l31 152l14 69h136q61 0 104.5 53.5t63.5 151.5q17 90 -8 140.5t-97 50.5q-55 0 -103 -50.5t-65 -135.5h-277q40 203 175.5 308.5t314.5 105.5q185 0 281 -108 t56 -307q-22 -110 -84 -191.5t-155 -127.5q82 -45 115.5 -130t9.5 -207q-44 -218 -181.5 -322.5t-340.5 -104.5q-166 0 -273.5 107t-64.5 318z" />
<glyph unicode="&#x418;" horiz-adv-x="1126" d="M8 0l291 1456h276l-173 -867l2 -1l549 868h277l-291 -1456h-277l172 864l-2 1l-548 -865h-276z" />
<glyph unicode="&#x419;" horiz-adv-x="1126" d="M8 0l291 1456h276l-173 -867l2 -1l549 868h277l-291 -1456h-277l172 864l-2 1l-548 -865h-276zM547 1897h193q-10 -63 7.5 -99.5t71.5 -36.5q50 0 80.5 38t40.5 98h194q-23 -141 -113 -218.5t-227 -77.5q-132 0 -200.5 81t-46.5 215z" />
<glyph unicode="&#x41a;" horiz-adv-x="1050" d="M18 0l291 1456h278l-119 -594h78l305 594h361l-475 -721l195 -735h-317l-125 602h-74l-120 -602h-278z" />
<glyph unicode="&#x41b;" horiz-adv-x="1143" d="M-36 0l45 227h31q103 11 148 113.5t127 461.5l150 654h779l-291 -1456h-277l245 1228h-232l-97 -426q-104 -444 -233 -623t-329 -179h-66z" />
<glyph unicode="&#x41c;" horiz-adv-x="1359" d="M14 0l291 1456h359l3 -1073l3 -1l435 1074h361l-291 -1456h-276l85 423l126 521l-3 1l-423 -945h-183l-43 933h-3l-80 -510l-85 -423h-276z" />
<glyph unicode="&#x41d;" horiz-adv-x="1142" d="M19 0l291 1456h277l-125 -626h380l125 626h276l-291 -1456h-276l120 603h-380l-120 -603h-277z" />
<glyph unicode="&#x41e;" horiz-adv-x="1119" d="M112 600l52 259q59 295 206 456.5t363 161.5q205 0 321.5 -178.5t63.5 -443.5l-52 -259q-59 -295 -211 -456t-369 -161q-203 0 -315.5 177t-58.5 444zM387 600q-37 -184 2.5 -288.5t141.5 -104.5q88 0 155 106t103 283l52 261q36 180 -7.5 285.5t-145.5 105.5 q-88 0 -150.5 -104t-98.5 -283z" />
<glyph unicode="&#x41f;" horiz-adv-x="1142" d="M19 0l291 1456h933l-291 -1456h-275l246 1228h-381l-246 -1228h-277z" />
<glyph unicode="&#x420;" horiz-adv-x="1074" d="M19 0l291 1456h468q188 0 283.5 -129.5t54.5 -337.5q-46 -227 -183 -347t-342 -120h-191l-104 -522h-277zM446 750h191q71 0 126 67.5t75 169.5q23 113 -2 177t-103 64h-191z" />
<glyph unicode="&#x421;" horiz-adv-x="1013" d="M108 584l58 290q58 295 196 449t343 154q207 0 310.5 -139t70.5 -388h-275q24 152 -5 225.5t-129 73.5q-77 0 -138.5 -101t-95.5 -272l-58 -292q-38 -183 -9.5 -280.5t122.5 -97.5q83 0 132.5 68t87.5 221h275q-64 -261 -184.5 -388.5t-329.5 -127.5q-200 0 -312 170 t-59 435z" />
<glyph unicode="&#x422;" horiz-adv-x="1021" d="M207 1228l45 228h928l-45 -228h-328l-245 -1228h-275l245 1228h-325z" />
<glyph unicode="&#x423;" horiz-adv-x="1025" d="M143 -17l42 227q6 -3 25 -3.5t32 -0.5q55 0 90 35.5t64 109.5l22 49h-4l-168 1056h295l59 -653l3 -1l305 654h290l-594 -1173q-87 -149 -169 -226.5t-208 -77.5q-18 0 -43 1.5t-41 2.5z" />
<glyph unicode="&#x424;" horiz-adv-x="1363" d="M131 719q58 294 218 450t378 157l38 190h277l-38 -190q197 -3 300 -169t50 -436q-58 -288 -215.5 -439.5t-373.5 -152.5l-38 -189h-277l38 189q-200 0 -305.5 162.5t-51.5 427.5zM402 456q37 -83 134 -83l142 710q-90 -2 -166.5 -96.5t-109.5 -267.5q-37 -180 0 -263z M813 373q88 1 162.5 92t108.5 256q37 187 2 273.5t-131 88.5z" />
<glyph unicode="&#x425;" horiz-adv-x="1045" d="M-45 0l437 734l-198 722h319l78 -512h3l246 512h320l-430 -722l219 -734h-335l-84 523h-3l-251 -523h-321z" />
<glyph unicode="&#x426;" horiz-adv-x="1247" d="M8 0l291 1456h275l-246 -1229h381l246 1229h277l-246 -1230h166l-134 -577h-258l70 351h-822z" />
<glyph unicode="&#x427;" horiz-adv-x="1141" d="M230 1014l88 442h276l-88 -442q-32 -155 -2.5 -204t128.5 -49q33 0 91.5 7t107.5 20l134 668h277l-291 -1456h-277l112 561q-48 -13 -105 -20t-94 -7q-205 0 -305.5 117.5t-51.5 362.5z" />
<glyph unicode="&#x428;" horiz-adv-x="1553" d="M17 0l291 1456h278l-246 -1229h260l246 1229h277l-246 -1229h256l246 1229h276l-291 -1456h-1347z" />
<glyph unicode="&#x429;" horiz-adv-x="1686" d="M17 0l291 1456h278l-246 -1229h260l246 1229h277l-246 -1229h256l246 1229h276l-246 -1230h174l-134 -576h-257l70 350h-1245z" />
<glyph unicode="&#x42a;" horiz-adv-x="1239" d="M209 1229l45 227h557l-107 -536h157q190 0 289 -125t58 -330q-46 -226 -185.5 -345.5t-345.5 -119.5h-435l245 1229h-278zM565 227h157q72 0 130.5 68.5t79.5 171.5q21 107 -8 166.5t-108 59.5h-158z" />
<glyph unicode="&#x42b;" horiz-adv-x="1423" d="M19 0l291 1456h278l-107 -536h157q190 0 289 -125t58 -330q-46 -226 -185.5 -345.5t-345.5 -119.5h-435zM342 227h157q72 0 130.5 68.5t79.5 171.5q21 107 -8 166.5t-108 59.5h-158zM956 0l291 1456h277l-291 -1456h-277z" />
<glyph unicode="&#x42c;" horiz-adv-x="1024" d="M17 0l291 1456h278l-107 -536h157q190 0 289 -125t58 -330q-46 -226 -185.5 -345.5t-345.5 -119.5h-435zM340 227h157q72 0 130.5 68.5t79.5 171.5q21 107 -8 166.5t-108 59.5h-158z" />
<glyph unicode="&#x42d;" horiz-adv-x="999" d="M70 482h277q-32 -158 -10.5 -216.5t108.5 -58.5q76 0 133.5 100t92.5 274l7 35h-315l46 228h315l6 30q37 190 22 283t-98 93q-79 0 -129 -66t-78 -211h-277q53 265 184.5 385t345.5 120q187 0 273 -167.5t33 -436.5l-58 -291q-59 -293 -201.5 -448t-346.5 -155 q-197 0 -288.5 128t-41.5 374z" />
<glyph unicode="&#x42e;" horiz-adv-x="1534" d="M22 0l291 1456h277l-129 -642h95l9 45q59 295 206 456.5t363 161.5q205 0 321.5 -178.5t63.5 -443.5l-52 -259q-59 -295 -211 -456t-369 -161q-201 0 -313 172.5t-64 434.5h-94l-117 -586h-277zM788 600q-37 -184 2.5 -288.5t141.5 -104.5q88 0 155 106t103 283l52 261 q36 180 -7.5 285.5t-145.5 105.5q-88 0 -150.5 -104t-98.5 -283z" />
<glyph unicode="&#x42f;" horiz-adv-x="968" d="M-116 0l363 637q-71 59 -93 147t6 224q42 216 182 332t329 116h405l-291 -1456h-277l107 533h-129l-303 -533h-299zM431 987q-25 -124 4 -182.5t106 -58.5h116l97 482h-128q-78 0 -123.5 -57t-71.5 -184z" />
<glyph unicode="&#x430;" horiz-adv-x="875" d="M34 302q35 173 139 254t295 81h87l18 88q17 86 4 125t-59 39q-36 0 -60.5 -33.5t-37.5 -98.5h-277q32 159 147.5 252t287.5 93q147 0 227.5 -98t44.5 -281l-88 -438q-17 -84 -19.5 -148t5.5 -137h-275q-5 28 -7.5 57.5t-1.5 57.5l-3 1q-46 -62 -101.5 -99t-120.5 -37 q-116 0 -175.5 87.5t-29.5 234.5zM313 315q-12 -59 1.5 -90.5t48.5 -31.5q31 0 62.5 20t55.5 54l42 207h-87q-48 0 -78.5 -44.5t-44.5 -114.5z" />
<glyph unicode="&#x431;" horiz-adv-x="937" d="M88 507l2 12l8 50q63 387 200.5 602t310.5 257q73 22 107.5 47t44.5 83h222q-34 -215 -117.5 -277.5t-276.5 -100.5q-67 -16 -115.5 -73.5t-83.5 -159.5l2 -2q52 35 106 55t109 20q169 0 243 -139.5t38 -365.5l-3 -23q-40 -243 -162.5 -378t-317.5 -135q-188 0 -272 145 t-45 383zM353.5 278q14.5 -72 87.5 -72q67 0 106 75.5t62 210.5l3 23q22 135 7.5 206.5t-86.5 71.5q-67 0 -107 -75.5t-60 -202.5l-3 -23q-24 -142 -9.5 -214z" />
<glyph unicode="&#x432;" horiz-adv-x="924" d="M19 0l216 1082h363q162 0 245.5 -76t53.5 -225q-17 -82 -68 -139t-132 -86v-3q97 -24 133 -89t18 -157q-33 -166 -133 -236.5t-280 -70.5h-416zM341 225h139q39 0 62.5 27.5t34.5 84.5q12 62 3 88.5t-55 26.5h-139zM424 639h91q39 0 63.5 25.5t35.5 78.5q12 65 -2.5 89 t-58.5 24h-86z" />
<glyph unicode="&#x433;" horiz-adv-x="688" d="M0 0l216 1082h586l-45 -228h-310l-171 -854h-276z" />
<glyph unicode="&#x434;" horiz-adv-x="1061" d="M-115 -325l112 553h75q107 101 144 192.5t82 305.5l70 356h659l-171 -855h135l-110 -552h-277l65 325h-434l-65 -325h-285zM364 227h217l125 624h-108l-25 -125q-39 -167 -90.5 -288.5t-118.5 -210.5z" />
<glyph unicode="&#x435;" horiz-adv-x="868" d="M70 451l24 152q37 233 155 366t304 133q172 0 248.5 -126t41.5 -347l-28 -174h-469v-4q-19 -115 5 -180t105 -65q87 0 140 20t107 58l24 -196q-58 -50 -147 -79t-193 -29q-176 0 -263 133t-54 338zM377 645h198l7 40q15 96 1 142.5t-66 46.5q-53 0 -86 -60.5t-54 -168.5z " />
<glyph unicode="&#x436;" horiz-adv-x="1429" d="M-49 0l350 590l24 -16l3 2l-157 506h351l42 -407h67l82 407h276l-82 -407h70l204 407h350l-358 -505l2 -2l30 15l113 -590h-354l-28 404h-83l-80 -404h-276l80 404h-80l-191 -404h-355z" />
<glyph unicode="&#x437;" horiz-adv-x="844" d="M38 318h276q-13 -62 3 -94.5t68 -32.5q42 0 70 38.5t40 97.5q15 76 0.5 106t-59.5 30h-116l10 54l10 48l4 21l12 57h116q34 0 58.5 32t36.5 89q11 60 4 92.5t-47 32.5q-38 0 -67 -31t-40 -86h-276q32 164 143 246t266 82q159 0 243.5 -81.5t54.5 -231.5 q-16 -81 -62 -140.5t-116 -93.5q63 -34 88 -96.5t8 -152.5q-33 -164 -149.5 -243.5t-290.5 -79.5q-141 0 -231.5 85.5t-56.5 251.5z" />
<glyph unicode="&#x438;" horiz-adv-x="926" d="M0 0l216 1082h277l-110 -550l3 -1l310 551h277l-216 -1082h-277l110 551l-3 1l-310 -552h-277z" />
<glyph unicode="&#x439;" horiz-adv-x="926" d="M0 0l216 1082h277l-110 -550l3 -1l310 551h277l-216 -1082h-277l110 551l-3 1l-310 -552h-277zM386 1554h193q-10 -63 7.5 -99.5t71.5 -36.5q50 0 80.5 38t40.5 98h194q-23 -141 -113 -218.5t-227 -77.5q-132 0 -200.5 81t-46.5 215z" />
<glyph unicode="&#x43a;" d="M21 0l216 1082h276l-82 -409h59l208 409h350l-350 -491l2 -2l2 1l149 -590h-368l-48 402h-58l-80 -402h-276z" />
<glyph unicode="&#x43b;" horiz-adv-x="927" d="M-58 0l42 230h22q68 0 97 69t89 319l106 464h675l-216 -1082h-277l170 854h-127l-55 -236q-79 -334 -183 -476t-306 -142h-37z" />
<glyph unicode="&#x43c;" horiz-adv-x="1241" d="M19 0l216 1082h340l16 -745h3l315 745h348l-216 -1082h-277l106 529l-3 1l-250 -530h-184l-35 495h-3l-99 -495h-277z" />
<glyph unicode="&#x43d;" horiz-adv-x="925" d="M0 0l216 1082h276l-87 -436h200l87 436h278l-216 -1082h-278l84 420h-200l-84 -420h-276z" />
<glyph unicode="&#x43e;" horiz-adv-x="922" d="M67 473l21 134q36 231 159 363t319 132q186 0 271 -137.5t50 -357.5l-21 -134q-38 -233 -160 -363t-317 -130q-188 0 -273 136t-49 357zM336 272.5q15 -66.5 89 -66.5q66 0 105 70.5t60 196.5l21 134q21 130 5.5 198.5t-86.5 68.5q-68 0 -107.5 -72t-58.5 -195l-21 -134 q-22 -134 -7 -200.5z" />
<glyph unicode="&#x43f;" horiz-adv-x="926" d="M0 0l216 1082h757l-216 -1082h-278l170 854h-203l-170 -854h-276z" />
<glyph unicode="&#x440;" horiz-adv-x="922" d="M-80 -416l299 1498h258l-8 -71l2 -2q42 45 89.5 69t100.5 24q148 0 210.5 -166.5t12.5 -420.5l-4 -21q-53 -264 -152 -389.5t-259 -125.5q-56 0 -100 22t-76 67l-97 -484h-276zM329 250q12 -23 35 -33.5t60 -10.5q64 0 107.5 73t72.5 215l4 21q34 169 25 264t-75 95 q-33 0 -64.5 -26.5t-59.5 -74.5z" />
<glyph unicode="&#x441;" horiz-adv-x="856" d="M64 470l22 139q37 230 156 361.5t316 131.5q160 0 241.5 -113.5t44.5 -313.5h-257q19 92 2 145.5t-72 53.5q-69 0 -101 -68t-53 -197l-22 -139q-23 -138 -13.5 -201t82.5 -63q48 0 84.5 44.5t44.5 126.5h257q-22 -179 -143 -288t-274 -109q-188 0 -269 135.5t-46 354.5z " />
<glyph unicode="&#x442;" horiz-adv-x="855" d="M123 856l45 226h776l-45 -226h-250l-171 -856h-277l171 856h-249z" />
<glyph unicode="&#x443;" horiz-adv-x="848" d="M-81 -413l76 212l19.5 -4.5t14.5 -1.5q52 0 84 28.5t60 89.5l36 76l-67 1095h297l-22 -604h3l249 604h297l-576 -1245q-53 -113 -134 -193.5t-213 -80.5q-32 0 -56 5.5t-68 18.5z" />
<glyph unicode="&#x444;" horiz-adv-x="1182" d="M73 514l4 21q55 277 161.5 422t260.5 145q22 0 42.5 -5t40.5 -13l95 476h276l-95 -475q22 8 45 12.5t48 4.5q141 0 194 -156t3 -411l-4 -21q-53 -263 -158 -399t-257 -136q-26 0 -47.5 5t-41.5 14l-82 -414h-276l82 410q-23 -7 -45 -11t-45 -4q-141 0 -195.5 146.5 t-5.5 388.5zM323.5 280.5q7.5 -74.5 68.5 -74.5h14l134 667q-4 0 -6.5 0.5t-6.5 0.5q-55 0 -99 -92.5t-75 -246.5l-4 -21q-33 -159 -25.5 -233.5zM682 206h18q55 0 96 81.5t71 226.5l4 21q33 166 26.5 252.5t-64.5 86.5q-4 0 -9.5 -0.5t-8.5 -0.5z" />
<glyph unicode="&#x445;" horiz-adv-x="848" d="M-48 0l331 547l-153 535h309l29 -344h3l145 344h311l-321 -535l156 -547h-310l-37 354h-3l-150 -354h-310z" />
<glyph unicode="&#x446;" horiz-adv-x="1014" d="M0 0l216 1082h276l-171 -855h203l171 855h278l-171 -857h140l-128 -546h-256l64 321h-622z" />
<glyph unicode="&#x447;" horiz-adv-x="914" d="M140 746l67 336h277l-67 -336q-24 -119 -3.5 -153.5t96.5 -34.5q18 0 35.5 2t36.5 8l103 514h276l-216 -1082h-276l67 339q-21 -4 -39 -6t-33 -2q-187 0 -277 100.5t-47 314.5z" />
<glyph unicode="&#x448;" horiz-adv-x="1351" d="M0 0l216 1082h276l-171 -855h166l171 855h277l-171 -855h168l171 855h277l-216 -1082h-1164z" />
<glyph unicode="&#x449;" horiz-adv-x="1509" d="M-2 0l216 1082h276l-171 -855h166l171 855h277l-171 -855h168l171 855h277l-171 -856h193l-128 -547h-257l64 321h-1081z" />
<glyph unicode="&#x44a;" horiz-adv-x="1080" d="M128 854l45 228h501l-64 -319h124q168 0 251.5 -105.5t49.5 -278.5q-37 -184 -154.5 -281.5t-299.5 -97.5h-400l170 854h-223zM503 225h123q49 0 84.5 43.5t49.5 110.5q15 75 -1.5 116.5t-70.5 41.5h-123z" />
<glyph unicode="&#x44b;" horiz-adv-x="1382" d="M19 0l216 1082h277l-64 -319h124q168 0 251.5 -105.5t49.5 -278.5q-37 -184 -154.5 -281.5t-299.5 -97.5h-400zM341 225h123q49 0 84.5 43.5t49.5 110.5q15 75 -1.5 116.5t-70.5 41.5h-123zM904 0l216 1082h278l-216 -1082h-278z" />
<glyph unicode="&#x44c;" horiz-adv-x="923" d="M19 0l216 1082h277l-64 -319h124q168 0 251.5 -105.5t49.5 -278.5q-37 -184 -154.5 -281.5t-299.5 -97.5h-400zM341 225h123q49 0 84.5 43.5t49.5 110.5q15 75 -1.5 116.5t-70.5 41.5h-123z" />
<glyph unicode="&#x44d;" horiz-adv-x="837" d="M44 402h259q-20 -99 -9 -147.5t62 -48.5q56 0 96.5 67.5t70.5 185.5h-159l34 169h159q20 123 7 184.5t-76 61.5q-45 0 -76.5 -43t-46.5 -123h-259q37 188 152.5 291t274.5 103q181 0 258 -154t29 -394l-6 -28q-53 -262 -180.5 -404.5t-322.5 -142.5q-153 0 -229.5 113 t-37.5 310z" />
<glyph unicode="&#x44e;" horiz-adv-x="1305" d="M22 0l216 1082h278l-84 -419h51q46 207 165.5 323t302.5 116q186 0 271 -137.5t50 -357.5l-21 -134q-38 -233 -160 -363t-317 -130q-179 0 -265 124.5t-62 331.5h-60l-87 -436h-278zM721 272.5q15 -66.5 89 -66.5q66 0 105 70.5t60 196.5l21 134q21 130 5.5 198.5 t-86.5 68.5q-68 0 -107.5 -72t-58.5 -195l-21 -134q-22 -134 -7 -200.5z" />
<glyph unicode="&#x44f;" horiz-adv-x="920" d="M-54 0l274 434q-68 47 -96 120t-9 166q34 172 152 267t297 95h380l-216 -1082h-276l75 375h-68l-236 -375h-277zM388 711q-13 -60 7 -100.5t72 -40.5h98l58 286h-104q-45 0 -82.5 -44.5t-48.5 -100.5z" />
<glyph unicode="&#x450;" horiz-adv-x="868" d="M70 451l24 152q37 233 155 366t304 133q172 0 248.5 -126t41.5 -347l-28 -174h-469v-4q-19 -115 5 -180t105 -65q87 0 140 20t107 58l24 -196q-58 -50 -147 -79t-193 -29q-176 0 -263 133t-54 338zM282 1504h295l114 -266h-219zM377 645h198l7 40q15 96 1 142.5t-66 46.5 q-53 0 -86 -60.5t-54 -168.5z" />
<glyph unicode="&#x451;" horiz-adv-x="868" d="M70 451l24 152q37 233 155 366t304 133q172 0 248.5 -126t41.5 -347l-28 -174h-469v-4q-19 -115 5 -180t105 -65q87 0 140 20t107 58l24 -196q-58 -50 -147 -79t-193 -29q-176 0 -263 133t-54 338zM237 1285l32 198h237l-32 -198h-237zM377 645h198l7 40q15 96 1 142.5 t-66 46.5q-53 0 -86 -60.5t-54 -168.5zM645 1285l32 198h238l-32 -198h-238z" />
<glyph unicode="&#x452;" horiz-adv-x="923" d="M-4 0l238 1193h-96l35 175h96l39 192h276l-39 -192h159l-35 -175h-159l-42 -212l3 -1q48 58 104 90t118 32q124 0 178.5 -114t7.5 -354l-34 -166h2l-101 -502q-42 -210 -141.5 -306.5t-253.5 -96.5q-32 0 -59 4t-54 13l55 223q19 -6 34 -9.5t36 -3.5q32 0 60 45.5 t46 130.5l7 34h-1l127 636q29 146 14 192t-74 46q-29 0 -55.5 -15t-51.5 -42l-163 -817h-276z" />
<glyph unicode="&#x453;" horiz-adv-x="688" d="M0 0l216 1082h586l-45 -228h-310l-171 -854h-276zM364 1217l200 266h296l-276 -266h-220z" />
<glyph unicode="&#x454;" horiz-adv-x="838" d="M58 470l22 139q37 230 156 361.5t316 131.5q160 0 241.5 -113.5t44.5 -313.5h-257q19 92 2 145.5t-72 53.5q-69 0 -101 -67.5t-53 -193.5h184l-34 -169h-176q-19 -123 -8 -180.5t81 -57.5q48 0 84.5 44.5t44.5 126.5h257q-22 -179 -143 -288t-274 -109q-188 0 -269 135.5 t-46 354.5z" />
<glyph unicode="&#x455;" horiz-adv-x="825" d="M21 340h260q-13 -88 11 -124.5t82 -36.5q44 0 72 27.5t36 76.5t-16 80t-106 82q-141 62 -202 137.5t-41 200.5q22 140 130.5 229.5t271.5 89.5q161 0 246 -96.5t61 -250.5h-274q11 72 -4 110t-62 38q-34 0 -65 -31t-37 -75q-9 -50 12.5 -77t105.5 -81q149 -59 209 -136.5 t39 -209.5q-24 -146 -134.5 -229.5t-280.5 -83.5q-168 0 -252 108.5t-62 251.5z" />
<glyph unicode="&#x456;" horiz-adv-x="477" d="M15 0l216 1082h276l-216 -1082h-276zM284 1343l43 217h276l-43 -217h-276z" />
<glyph unicode="&#x457;" horiz-adv-x="497" d="M22 0l216 1082h278l-216 -1082h-278zM92 1263l32 198h237l-32 -198h-237zM500 1263l32 198h238l-32 -198h-238z" />
<glyph unicode="&#x458;" horiz-adv-x="467" d="M-220 -419l56 223q19 -6 34 -9t36 -3q34 0 63 44t45 131l223 1115h276l-223 -1115q-42 -210 -141 -307t-253 -97q-31 0 -58 4.5t-58 13.5zM285 1345l43 215h277l-43 -215h-277z" />
<glyph unicode="&#x459;" horiz-adv-x="1381" d="M-56 0l42 228h22q61 0 111 94t91 296l92 464h666l-69 -344h123q167 0 252.5 -101.5t53.5 -266.5q-36 -181 -153.5 -275.5t-300.5 -94.5h-400l170 854h-109l-47 -236q-69 -342 -183 -480t-324 -138h-37zM797 225h122q50 0 85.5 41.5t48.5 105.5q13 66 -4.5 103t-72.5 37 h-122z" />
<glyph unicode="&#x45a;" horiz-adv-x="1382" d="M0 0l216 1082h276l-85 -422h200l85 422h278l-69 -344h123q167 0 252.5 -101.5t53.5 -266.5q-36 -181 -153.5 -275.5t-300.5 -94.5h-400l86 434h-200l-86 -434h-276zM799 225h122q50 0 85.5 41.5t48.5 105.5q13 66 -4.5 103t-72.5 37h-122z" />
<glyph unicode="&#x45b;" horiz-adv-x="923" d="M-4 0l241 1206h-85l35 175h85l36 179h276l-36 -179h170l-35 -175h-170l-45 -226l3 -1q48 59 104 91t118 32q124 0 178.5 -114t7.5 -354l-127 -634h-277l127 636q29 146 14 192t-74 46q-29 0 -55.5 -15t-51.5 -42l-163 -817h-276z" />
<glyph unicode="&#x45c;" d="M21 0l216 1082h276l-82 -409h59l208 409h350l-350 -491l2 -2l2 1l149 -590h-368l-48 402h-58l-80 -402h-276zM485 1216l200 266h296l-276 -266h-220z" />
<glyph unicode="&#x45d;" horiz-adv-x="926" d="M0 0l216 1082h277l-110 -550l3 -1l310 551h277l-216 -1082h-277l110 551l-3 1l-310 -552h-277zM353 1482h295l114 -266h-219z" />
<glyph unicode="&#x45e;" horiz-adv-x="848" d="M-81 -413l76 212l19.5 -4.5t14.5 -1.5q52 0 84 28.5t60 89.5l36 76l-67 1095h297l-22 -604h3l249 604h297l-576 -1245q-53 -113 -134 -193.5t-213 -80.5q-32 0 -56 5.5t-68 18.5zM341 1554h193q-10 -63 7.5 -99.5t71.5 -36.5q50 0 80.5 38t40.5 98h194 q-23 -141 -113 -218.5t-227 -77.5q-132 0 -200.5 81t-46.5 215z" />
<glyph unicode="&#x45f;" horiz-adv-x="926" d="M0 0l216 1082h276l-171 -855h203l171 855h278l-216 -1082h-243l-71 -358h-277l71 358h-237z" />
<glyph unicode="&#x460;" horiz-adv-x="1542" d="M103 461l199 995h276l-199 -995q-28 -140 -8 -197.5t83 -57.5q60 0 107.5 62.5t73.5 192.5l199 995h277l-199 -995q-28 -140 -7.5 -197.5t84.5 -57.5q59 0 106 62.5t73 192.5l199 995h276l-199 -995q-50 -251 -180.5 -366.5t-319.5 -115.5q-78 0 -137.5 36t-93.5 108 q-62 -75 -138 -109.5t-166 -34.5q-172 0 -262.5 125t-43.5 357z" />
<glyph unicode="&#x461;" horiz-adv-x="1318" d="M81 453l125 629h276l-125 -629q-29 -139 -20 -193t54 -54q50 0 88 59.5t65 187.5l125 629h278l-125 -629q-29 -141 -19 -194t63 -53q42 0 75 59t60 188l125 629h276l-125 -629q-50 -248 -167.5 -361t-288.5 -113q-70 0 -121.5 31t-82.5 94q-57 -65 -124.5 -95t-146.5 -30 q-156 0 -234 123t-31 351z" />
<glyph unicode="&#x462;" horiz-adv-x="1024" d="M17 0l218 1093h-112l35 175h112l38 188h278l-38 -188h141l-35 -175h-141l-34 -173h157q190 0 289 -125t58 -330q-46 -226 -185.5 -345.5t-345.5 -119.5h-435zM340 227h157q72 0 130.5 68.5t79.5 171.5q21 107 -8 166.5t-108 59.5h-158z" />
<glyph unicode="&#x463;" horiz-adv-x="923" d="M18 0l216 1081h-104l35 175h104l61 305h278l-61 -305h173l-35 -175h-173l-60 -296h124q167 0 251 -108t49 -283q-39 -193 -157 -293.5t-300 -100.5h-401zM341 225h123q49 0 85 47t52 122q15 77 -1 121t-69 44h-124z" />
<glyph unicode="&#x464;" horiz-adv-x="1431" d="M4 0l291 1456h277l-120 -598h109l4 17q58 295 196 449t343 154q207 0 310.5 -139t70.5 -388h-275q24 152 -5 225.5t-129 73.5q-77 0 -138.5 -101t-95.5 -272l-4 -19h312l-46 -228h-311l-9 -45q-38 -183 -9.5 -280.5t122.5 -97.5q83 0 132.5 68t87.5 221h275 q-64 -261 -184.5 -388.5t-329.5 -127.5q-200 0 -312 170t-59 435l9 45h-109l-126 -630h-277z" />
<glyph unicode="&#x465;" horiz-adv-x="1222" d="M5 0l216 1082h278l-90 -450h52q40 219 158 344.5t310 125.5q160 0 241.5 -113.5t44.5 -313.5h-257q19 92 2 145.5t-72 53.5q-66 0 -98 -62.5t-52 -179.5h213l-35 -175h-207q-21 -131 -10.5 -191t82.5 -60q48 0 84.5 44.5t44.5 126.5h257q-22 -179 -143 -288t-274 -109 q-185 0 -266.5 131.5t-50.5 345.5h-59l-91 -457h-278z" />
<glyph unicode="&#x466;" horiz-adv-x="1098" d="M-60 0l677 1456h286l93 -1456h-289l-20 426h-25l-85 -426h-227l85 426h-17l-189 -426h-289zM505 623h174l-16 348l-3 1z" />
<glyph unicode="&#x467;" horiz-adv-x="930" d="M-69 0l515 1082h289l83 -1082h-282l-4 276h-24l-55 -276h-169l55 276h-14l-113 -276h-281zM399 457h131l-2 215l1 98h-3l-39 -98z" />
<glyph unicode="&#x468;" horiz-adv-x="1537" d="M22 0l291 1456h277l-166 -832h228l387 832h286l93 -1456h-289l-20 426h-25l-85 -426h-227l85 426h-17l-189 -426h-289l197 425h-175l-85 -425h-277zM927 623h174l-16 348l-3 1z" />
<glyph unicode="&#x469;" horiz-adv-x="1315" d="M4 0l216 1082h278l-125 -625h162l298 625h289l83 -1082h-282l-4 276h-24l-55 -276h-169l55 276h-14l-113 -276h-281l132 277h-113l-55 -277h-278zM786 457h131l-2 215l1 98h-3l-39 -98z" />
<glyph unicode="&#x46a;" horiz-adv-x="1434" d="M4 0l68 341q50 257 172 354.5t341 101.5l-158 659h1027l-423 -661q181 -14 261 -121.5t35 -332.5l-68 -341h-277l68 341q27 137 -0.5 181.5t-115.5 44.5h-38l-113 -567h-276l113 567h-65q-82 0 -131.5 -49.5t-74.5 -176.5l-68 -341h-277zM770 1225l60 -321l188 321h-248z " />
<glyph unicode="&#x46b;" horiz-adv-x="1198" d="M0 0l37 187q44 217 136.5 310.5t251.5 110.5l-117 474h858l-308 -478q133 -26 189 -125.5t18 -291.5l-37 -187h-277l37 187q24 121 11.5 163t-63.5 46l-79 -396h-277l79 397q-53 -2 -87.5 -48t-57.5 -162l-37 -187h-277zM631 898l28 -200l3 -1l107 201h-138z" />
<glyph unicode="&#x46c;" horiz-adv-x="1908" d="M30 0l291 1456h277l-132 -657h592l-158 657h1027l-423 -661q181 -14 261 -121.5t35 -332.5l-68 -341h-277l68 341q27 137 -0.5 181.5t-115.5 44.5h-38l-113 -567h-276l113 567h-65q-82 0 -131.5 -49.5t-74.5 -176.5l-68 -341h-277l68 341q13 69 31.5 124.5t44.5 103.5 h-201l-113 -569h-277zM1243 1225l60 -321l188 321h-248z" />
<glyph unicode="&#x46d;" horiz-adv-x="1661" d="M22 0l216 1082h278l-94 -469h463l-116 469h858l-308 -478q133 -26 189 -125.5t18 -291.5l-37 -187h-277l37 187q24 121 11.5 163t-63.5 46l-79 -396h-277l79 397q-53 -2 -87.5 -48t-57.5 -162l-37 -187h-277l37 187q13 68 31 121t42 98h-190l-81 -406h-278zM1092 898 l28 -200l3 -1l107 201h-138z" />
<glyph unicode="&#x46e;" horiz-adv-x="838" d="M-113 -75q31 155 120.5 223t231.5 68h49q57 0 101.5 51t61.5 135q24 121 -7 173t-119 52h-113l32 157l16 79h121q59 0 100.5 50.5t58.5 136.5q17 87 -7.5 129t-94.5 42h-180l47 235h180q196 0 286 -92t52 -286q-27 -132 -89.5 -213t-158.5 -123q96 -46 137 -130t17 -206 q-44 -219 -164.5 -322t-307.5 -103h-40q-34 0 -57 -26t-31 -71q-13 -63 9 -95.5t63 -59.5l-111 -172q-137 34 -184 127t-19 241zM339 1898l3 15h232l63 -142l116 142h233l-3 -17l-281 -253h-184z" />
<glyph unicode="&#x46f;" horiz-adv-x="837" d="M-81 -75q28 138 107.5 198.5t205.5 60.5h48q59 0 102.5 36t55.5 95q14 72 -15.5 104.5t-100.5 32.5h-130l17 84l18 89h138q45 0 75.5 36.5t43.5 99.5q12 59 -11.5 88t-87.5 29h-190l40 204h190q191 0 281 -71.5t61 -222.5q-20 -94 -67.5 -155t-122.5 -95 q79 -36 114.5 -94.5t19.5 -139.5q-33 -166 -141.5 -244.5t-281.5 -78.5h-39q-42 0 -69 -26t-35 -71q-13 -63 4 -95.5t50 -59.5l-105 -156q-105 40 -152 131.5t-23 220.5zM280 1512l3 15h232l63 -142l116 142h233l-3 -17l-281 -253h-184z" />
<glyph unicode="&#x470;" horiz-adv-x="1186" d="M151 989l93 467h277l-93 -467q-33 -163 -15 -248t86 -113l166 828h275l-165 -826q73 30 123 118t81 241l93 467h277l-93 -467q-57 -281 -191.5 -425.5t-337.5 -170.5l-78 -393h-275l78 393q-185 27 -269.5 181t-31.5 415z" />
<glyph unicode="&#x471;" horiz-adv-x="1239" d="M85 588l98 494h277l-99 -496q-32 -156 -11.5 -238t84.5 -116l170 849h277l-169 -842q89 44 147.5 136.5t84.5 222.5q22 120 26.5 237.5t-3.5 246.5h250q26 -98 29 -216.5t-26 -267.5q-53 -262 -183.5 -418t-374.5 -191l-92 -462h-277l93 467q-188 40 -271 185t-30 409z " />
<glyph unicode="&#x472;" horiz-adv-x="1121" d="M116 523l81 408q56 281 202.5 413.5t366.5 132.5q202 0 305 -144t52 -402l-81 -408q-57 -281 -204.5 -412.5t-368.5 -131.5q-203 0 -304 142.5t-49 401.5zM385.5 277.5q29.5 -70.5 128.5 -70.5q89 0 153.5 77.5t97.5 238.5l24 122h-373l-24 -122q-36 -175 -6.5 -245.5z M451 820h373l23 113q34 173 3 244t-129 71q-90 0 -152.5 -77.5t-94.5 -237.5z" />
<glyph unicode="&#x473;" horiz-adv-x="918" d="M65 473l21 134q36 231 159 363t319 132q186 0 271 -137.5t50 -357.5l-21 -134q-38 -233 -160 -363t-317 -130q-188 0 -273 136t-49 357zM336 266.5q16 -60.5 87 -60.5q63 0 101 63.5t59 179.5h-246q-17 -122 -1 -182.5zM365 625h247q17 122 1 185.5t-85 63.5 q-66 0 -104.5 -67t-58.5 -182z" />
<glyph unicode="&#x474;" horiz-adv-x="1057" d="M228 1456h291l-4 -1080l-1 -56l3 -1l21 54l283 758q79 177 164 260.5t206 83.5l34 -1l-49 -236h-26q-29 0 -52.5 -32t-40.5 -92l-462 -1114h-286z" />
<glyph unicode="&#x475;" horiz-adv-x="844" d="M151 1082h291l-45 -674l-3 -53h3l18 53l109 364q76 167 163.5 248.5t204.5 81.5q23 0 42.5 -4.5t35.5 -13.5l-66 -222q-1 0 -14.5 2t-19.5 2q-30 0 -59 -30.5t-42 -77.5l-307 -758h-270z" />
<glyph unicode="&#x476;" horiz-adv-x="1057" d="M228 1456h291l-4 -1080l-1 -56l3 -1l21 54l283 758q79 177 164 260.5t206 83.5l34 -1l-49 -236h-26q-29 0 -52.5 -32t-40.5 -92l-462 -1114h-286zM322 1854h261l125 -266h-220zM650 1854h258l91 -266h-218z" />
<glyph unicode="&#x477;" horiz-adv-x="844" d="M151 1082h291l-45 -674l-3 -53h3l18 53l109 364q76 167 163.5 248.5t204.5 81.5q23 0 42.5 -4.5t35.5 -13.5l-66 -222q-1 0 -14.5 2t-19.5 2q-30 0 -59 -30.5t-42 -77.5l-307 -758h-270zM196 1604h261l125 -266h-220zM524 1604h258l91 -266h-218z" />
<glyph unicode="&#x478;" horiz-adv-x="1967" d="M112 600l52 259q59 295 206 456.5t363 161.5q205 0 321.5 -178.5t63.5 -443.5l-52 -259q-59 -295 -211 -456t-369 -161q-203 0 -315.5 177t-58.5 444zM387 600q-37 -184 2.5 -288.5t141.5 -104.5q88 0 155 106t103 283l52 261q36 180 -7.5 285.5t-145.5 105.5 q-88 0 -150.5 -104t-98.5 -283zM1038 -413l76 212l19.5 -4.5t14.5 -1.5q52 0 84 28.5t60 89.5l36 76l-67 1095h297l-22 -604h3l249 604h297l-576 -1245q-53 -113 -134 -193.5t-213 -80.5q-32 0 -56 5.5t-68 18.5z" />
<glyph unicode="&#x479;" horiz-adv-x="1770" d="M67 473l21 134q36 231 159 363t319 132q186 0 271 -137.5t50 -357.5l-21 -134q-38 -233 -160 -363t-317 -130q-188 0 -273 136t-49 357zM336 272.5q15 -66.5 89 -66.5q66 0 105 70.5t60 196.5l21 134q21 130 5.5 198.5t-86.5 68.5q-68 0 -107.5 -72t-58.5 -195l-21 -134 q-22 -134 -7 -200.5zM841 -413l76 212l19.5 -4.5t14.5 -1.5q52 0 84 28.5t60 89.5l36 76l-67 1095h297l-22 -604h3l249 604h297l-576 -1245q-53 -113 -134 -193.5t-213 -80.5q-32 0 -56 5.5t-68 18.5z" />
<glyph unicode="&#x47a;" horiz-adv-x="1121" d="M111 600l52 259q59 295 206 456.5t363 161.5q205 0 321.5 -178.5t63.5 -443.5l-52 -259q-59 -295 -211 -456t-369 -161q-203 0 -315.5 177t-58.5 444zM364 -135l93 466h174l-93 -466h-174zM386 600q-37 -184 2.5 -288.5t141.5 -104.5q88 0 155 106t103 283l52 261 q36 180 -7.5 285.5t-145.5 105.5q-88 0 -150.5 -104t-98.5 -283zM613 1119l91 457h173l-91 -457h-173z" />
<glyph unicode="&#x47b;" horiz-adv-x="923" d="M67 473l21 134q36 231 159 363t319 132q186 0 271 -137.5t50 -357.5l-21 -134q-38 -233 -160 -363t-317 -130q-188 0 -273 136t-49 357zM278 -126l92 461h141l-92 -461h-141zM336 272.5q15 -66.5 89 -66.5q66 0 105 70.5t60 196.5l21 134q21 130 5.5 198.5t-86.5 68.5 q-68 0 -107.5 -72t-58.5 -195l-21 -134q-22 -134 -7 -200.5zM461 758l89 446h141l-89 -446h-141z" />
<glyph unicode="&#x47c;" horiz-adv-x="1544" d="M105 468l99 498q51 253 181.5 371t318.5 118l-45 -227q-57 0 -105 -65t-74 -197l-99 -498q-30 -144 -10 -203t83 -59q60 0 107.5 62.5t73.5 192.5l73 364h260l-73 -364q-29 -141 -8.5 -198t86.5 -57q57 0 104.5 64.5t75.5 197.5l99 498q28 143 8.5 202.5t-82.5 59.5 l45 227q172 0 261.5 -127.5t43.5 -361.5l-99 -498q-52 -255 -182.5 -372t-318.5 -117q-75 0 -132.5 33t-93.5 99q-61 -69 -134 -100.5t-159 -31.5q-172 0 -261.5 127t-42.5 362zM758 1575l7 36q23 117 77 167.5t143 50.5q45 0 157 -63t199 -63h17l-26 -127h-17 q-90 0 -208 62.5t-146 62.5q-27 0 -51 -28t-34 -80l-4 -18h-114zM835 1340l66 108l28 148h154l-26 -131l-161 -175z" />
<glyph unicode="&#x47d;" horiz-adv-x="1306" d="M92 445l38 188q48 241 173 353.5t304 112.5l-46 -227q-48 0 -88.5 -59.5t-64.5 -179.5l-38 -188q-27 -132 -19.5 -185.5t45.5 -53.5q37 0 70.5 60t59.5 187l32 160h261l-32 -160q-28 -137 -19.5 -192t49.5 -55q34 0 65.5 58.5t56.5 180.5l38 188q25 131 9 185t-69 54 l46 227q164 0 250 -121.5t42 -344.5l-38 -188q-49 -243 -165 -354.5t-280 -111.5q-61 0 -107 31.5t-73 95.5q-52 -66 -112 -96.5t-129 -30.5q-151 0 -227.5 121.5t-31.5 344.5zM590 1235l7 36q23 118 77 168t143 50q45 0 158 -62.5t200 -62.5h16l-26 -128h-18 q-90 0 -207.5 62.5t-145.5 62.5q-27 0 -50.5 -27.5t-33.5 -80.5l-4 -18h-116zM671 1016l66 108l25 132h153l-23 -116l-160 -174z" />
<glyph unicode="&#x47e;" horiz-adv-x="1543" d="M103 461q-47 -232 43.5 -357t262.5 -125q90 0 166 34.5t138 109.5q34 -72 93.5 -108t137.5 -36q189 0 319.5 115.5t180.5 366.5l199 995h-276l-199 -995q-26 -130 -73 -192.5t-106 -62.5q-64 0 -84.5 57.5t7.5 197.5l199 995h-277l-199 -995q-26 -130 -73.5 -192.5 t-107.5 -62.5q-63 0 -83 57.5t8 197.5l199 995h-276zM665 1688l21 108h717l-19 -108h-286l-25 -125h-161l25 125h-272z" />
<glyph unicode="&#x47f;" horiz-adv-x="1318" d="M81 453q-47 -228 31 -351t234 -123q79 0 146.5 30t124.5 95q31 -63 82.5 -94t121.5 -31q171 0 288.5 113t167.5 361l125 629h-276l-125 -629q-27 -129 -60 -188t-75 -59q-53 0 -63 53t19 194l125 629h-278l-125 -629q-27 -128 -65 -187.5t-88 -59.5q-45 0 -54 54t20 193 l125 629h-276zM535 1349l20 108h651l-14 -108h-259l-26 -127h-160l26 127h-238z" />
<glyph unicode="&#x480;" horiz-adv-x="1005" d="M106 582l59 291q58 291 204 447.5t352 156.5q195 0 283 -128.5t39 -374.5h-276q31 159 12.5 217t-103.5 58q-77 0 -138.5 -101.5t-95.5 -272.5l-59 -293q-38 -188 -19.5 -282t103.5 -94h177l-113 -566h-274l70 353q-144 43 -205.5 200.5t-15.5 388.5z" />
<glyph unicode="&#x481;" horiz-adv-x="878" d="M94 526l6 28q52 262 179 405t324 143q153 0 229 -113.5t37 -309.5h-258q19 96 7.5 145.5t-60.5 49.5q-65 0 -109 -87.5t-73 -232.5l-6 -28q-32 -159 -25.5 -237.5t72.5 -82.5h188l-113 -568h-276l70 355q-133 41 -183.5 184t-8.5 349z" />
<glyph unicode="&#x482;" horiz-adv-x="1016" d="M53 0l252 398l-187 171l84 123l191 -171l221 365l-188 171l87 125l187 -171l203 331h145l-251 -408l189 -171l-88 -122l-187 170l-222 -365l186 -172l-85 -123l-190 170l-200 -321h-147z" />
<glyph unicode="&#x483;" horiz-adv-x="35" d="M-538 1191l48 233h429l20 108l156 -1l-43 -216h-428l-25 -125z" />
<glyph unicode="&#x484;" horiz-adv-x="35" d="M-498 1304l25 127h15q91 0 232.5 63t189.5 63q89 0 125 -50.5t13 -167.5l-7 -36h-118l3 18q11 52 -3 80t-42 28q-29 0 -176 -62.5t-241 -62.5h-16z" />
<glyph unicode="&#x485;" horiz-adv-x="35" d="M-227 1500l29 146h161l-33 -163l21 -108l-82 -65z" />
<glyph unicode="&#x486;" horiz-adv-x="35" d="M-251 1375l66 108l31 163h160l-29 -146l-171 -190z" />
<glyph unicode="&#x488;" horiz-adv-x="35" d="M-1303 487q19 90 71 139t128 49q71 0 105.5 -52.5t17.5 -135.5h-86q10 47 -1.5 74t-52.5 27q-35 0 -60.5 -29.5t-34.5 -71.5h-87zM-1279 -32q18 90 70 139t128 49q71 0 106.5 -52.5t18.5 -135.5h-87q10 47 -2.5 74t-52.5 27q-35 0 -59.5 -29t-33.5 -72h-88zM-1067 990 q19 90 71.5 139t128.5 49q71 0 105 -52.5t17 -135.5h-85q10 47 -2.5 74t-52.5 27q-36 0 -60 -29t-34 -72h-88zM-886 -316q19 91 70 139.5t127 48.5q71 0 106 -52t18 -136h-85q10 48 -3 74.5t-53 26.5q-35 0 -60 -29t-34 -72h-86zM-575 1267q19 90 71 139t128 49 q71 0 105.5 -52.5t17.5 -135.5h-85q10 47 -2 74t-53 27q-35 0 -59.5 -29t-34.5 -72h-88zM-389 -32q18 90 70 139t127 49q71 0 105 -52.5t17 -135.5h-83q10 47 -2.5 74t-53.5 27q-35 0 -60 -29t-34 -72h-86zM-177 990q19 90 70.5 139t126.5 49q70 0 104.5 -52.5t18.5 -135.5 h-85q9 47 -3.5 74t-52.5 27q-34 0 -59 -29t-34 -72h-86zM-136 487q19 90 71 139t127 49q70 0 104 -52.5t18 -135.5h-85q9 47 -3 74t-51 27q-36 0 -60 -29t-34 -72h-87z" />
<glyph unicode="&#x489;" horiz-adv-x="0" d="M-1234 545l20 98l250 -71l-27 -139l-13 -12zM-1210 -80l265 200l53 -99l-3 -17l-276 -153zM-889 1188l62 69l92 -299l-95 -98l-13 2zM-799 -413l124 353h105l5 -14l-161 -339h-73zM-488 1140l161 338h73l-124 -352h-104zM-330 62l95 99l12 -2l49 -325l-64 -71zM-172 1002 l5 16l273 153l39 -68q-32 -23 -263 -200zM-91 492l28 139l12 12l229 -124l-20 -98z" />
<glyph unicode="&#x48a;" horiz-adv-x="1126" d="M8 0l291 1456h276l-173 -867l2 -1l549 868h277l-291 -1456h-277l172 864l-2 1l-548 -865h-276zM547 1897h193q-10 -63 7.5 -99.5t71.5 -36.5q50 0 80.5 38t40.5 98h194q-23 -141 -113 -218.5t-227 -77.5q-132 0 -200.5 81t-46.5 215zM830 -336q44 72 72.5 143t47.5 164 l45 226h244l-43 -211q-23 -111 -92 -216t-157 -182z" />
<glyph unicode="&#x48b;" horiz-adv-x="926" d="M0 0l216 1082h277l-110 -550l3 -1l310 551h277l-216 -1082h-277l110 551l-3 1l-310 -552h-277zM386 1554h193q-10 -63 7.5 -99.5t71.5 -36.5q50 0 80.5 38t40.5 98h194q-23 -141 -113 -218.5t-227 -77.5q-132 0 -200.5 81t-46.5 215zM647 -336q44 72 72.5 143t47.5 164 l45 226h244l-43 -211q-23 -111 -92 -216t-157 -182z" />
<glyph unicode="&#x48c;" horiz-adv-x="1024" d="M17 0l218 1093h-112l35 175h112l38 188h278l-38 -188h141l-35 -175h-141l-34 -173h157q190 0 289 -125t58 -330q-46 -226 -185.5 -345.5t-345.5 -119.5h-435zM340 227h157q72 0 130.5 68.5t79.5 171.5q21 107 -8 166.5t-108 59.5h-158z" />
<glyph unicode="&#x48d;" horiz-adv-x="923" d="M18 0l255 1280h-103l35 176h104l31 156h278l-31 -156h173l-35 -176h-174l-99 -495h124q167 0 251 -108t49 -283q-39 -193 -157 -293.5t-300 -100.5h-401zM341 225h123q49 0 85 47t52 122q15 77 -1 121t-69 44h-124z" />
<glyph unicode="&#x48e;" horiz-adv-x="1018" d="M20 0l291 1456h468q188 0 283.5 -129.5t54.5 -337.5q-46 -227 -183 -347t-342 -120h-191l-104 -522h-277zM447 750h191q71 0 126 67.5t75 169.5q23 113 -2 177t-103 64h-191zM618 910l103 86l270 -488l-103 -85z" />
<glyph unicode="&#x48f;" horiz-adv-x="916" d="M-80 -416l299 1498h258l-8 -71l2 -2q42 45 89.5 69t100.5 24q148 0 210.5 -166.5t12.5 -420.5l-4 -21q-53 -264 -152 -389.5t-259 -125.5q-56 0 -100 22t-76 67l-97 -484h-276zM329 250q12 -23 35 -33.5t60 -10.5q64 0 107.5 73t72.5 215l4 21q34 169 25 264t-75 95 q-33 0 -64.5 -26.5t-59.5 -74.5zM429 376l104 83l233 -462l-106 -83z" />
<glyph unicode="&#x490;" horiz-adv-x="908" d="M18 0l291 1456h486l76 377h277l-121 -603h-15v-2h-470l-246 -1228h-278z" />
<glyph unicode="&#x491;" horiz-adv-x="773" d="M-1 0l216 1082h352l64 320h277l-109 -547h-43v-1h-310l-171 -854h-276z" />
<glyph unicode="&#x492;" horiz-adv-x="909" d="M20 0l133 666h-114l35 175h114l123 615h748l-45 -228h-470l-78 -387h139l-35 -175h-139l-133 -666h-278z" />
<glyph unicode="&#x493;" horiz-adv-x="688" d="M-23 457l35 175h114l90 450h586l-45 -228h-310l-45 -222h141l-35 -175h-141l-91 -457h-276l91 457h-114z" />
<glyph unicode="&#x494;" horiz-adv-x="904" d="M20 0l291 1456h748l-45 -228h-470l-79 -392h121q208 0 309 -147.5t43 -439.5q-53 -258 -188.5 -423.5t-374.5 -165.5l43 214q103 0 155 102.5t85 257.5q41 206 12 289.5t-130 83.5h-121l-121 -607h-278z" />
<glyph unicode="&#x495;" horiz-adv-x="884" d="M-1 0l216 1082h586l-45 -228h-310l-38 -191h9q197 0 297.5 -122.5t52.5 -362.5q-25 -133 -125 -265t-250 -197l-85 186q70 52 117.5 117.5t66.5 158.5q27 140 -3 198t-117 58h-9l-87 -434h-276z" />
<glyph unicode="&#x496;" horiz-adv-x="1657" d="M-55 0l494 810l-189 646h343l90 -594h108l119 594h275l-119 -594h105l320 594h343l-442 -647l165 -809h-344l-75 604h-124l-120 -604h-275l120 604h-127l-324 -604h-343zM1320 -356l111 558h277l-111 -558h-277z" />
<glyph unicode="&#x497;" horiz-adv-x="1429" d="M-49 0l350 590l24 -16l3 2l-157 506h351l42 -407h67l82 407h276l-82 -407h70l204 407h350l-358 -505l2 -2l30 15l113 -590h-354l-28 404h-83l-80 -404h-276l80 404h-80l-191 -404h-355zM1040 -356l111 558h277l-111 -558h-277z" />
<glyph unicode="&#x498;" horiz-adv-x="1009" d="M59 404h277q-19 -93 10 -145.5t96 -52.5q70 0 126.5 57.5t74.5 146.5q25 127 0.5 174.5t-100.5 47.5h-136l31 152l14 69h136q61 0 104.5 53.5t63.5 151.5q17 90 -8 140.5t-97 50.5q-55 0 -103 -50.5t-65 -135.5h-277q40 203 175.5 308.5t314.5 105.5q185 0 281 -108 t56 -307q-22 -110 -84 -191.5t-155 -127.5q82 -45 115.5 -130t9.5 -207q-44 -218 -181.5 -322.5t-340.5 -104.5q-166 0 -273.5 107t-64.5 318zM179 -481l111 558h277l-111 -558h-277z" />
<glyph unicode="&#x499;" horiz-adv-x="844" d="M38 318h276q-13 -62 3 -94.5t68 -32.5q42 0 70 38.5t40 97.5q15 76 0.5 106t-59.5 30h-116l10 54l10 48l4 21l12 57h116q34 0 58.5 32t36.5 89q11 60 4 92.5t-47 32.5q-38 0 -67 -31t-40 -86h-276q32 164 143 246t266 82q159 0 243.5 -81.5t54.5 -231.5 q-16 -81 -62 -140.5t-116 -93.5q63 -34 88 -96.5t8 -152.5q-33 -164 -149.5 -243.5t-290.5 -79.5q-141 0 -231.5 85.5t-56.5 251.5zM112 -480l111 558h277l-111 -558h-277z" />
<glyph unicode="&#x49a;" horiz-adv-x="1050" d="M18 0l291 1456h278l-119 -594h78l305 594h361l-475 -721l195 -735h-317l-125 602h-74l-120 -602h-278zM663 -356l111 558h277l-111 -558h-277z" />
<glyph unicode="&#x49b;" d="M21 0l216 1082h276l-82 -409h59l208 409h350l-350 -491l2 -2l2 1l149 -590h-368l-48 402h-58l-80 -402h-276zM580 -356l111 558h277l-111 -558h-277z" />
<glyph unicode="&#x49c;" horiz-adv-x="1096" d="M18 0l291 1456h276l-119 -596h43l53 261h148l-53 -261h15l278 596h343l-414 -643l4 3l142 -816h-352l-44 602h-23l-47 -235h-148l47 235h-44l-120 -602h-276z" />
<glyph unicode="&#x49d;" horiz-adv-x="1018" d="M21 0l216 1082h276l-82 -409h41l39 194h132l-39 -194h26l157 409h349l-314 -491l2 -2l2 1l96 -590h-353l-1 402h-18l-35 -175h-132l35 175h-41l-80 -402h-276z" />
<glyph unicode="&#x49e;" horiz-adv-x="1070" d="M38 0l228 1143h-165l35 175h165l28 138h278l-28 -138h88l-35 -175h-88l-56 -281h78l305 594h361l-475 -721l195 -735h-317l-125 602h-74l-120 -602h-278z" />
<glyph unicode="&#x49f;" horiz-adv-x="920" d="M23 0l242 1212h-145l35 175h145l35 173h277l-35 -173h109l-35 -175h-109l-107 -538h46l217 408h318l-336 -482l148 -600h-316l-77 450h-45l-90 -450h-277z" />
<glyph unicode="&#x4a0;" horiz-adv-x="1340" d="M193 1228l45 228h638l-119 -594h78l305 594h361l-475 -721l195 -735h-317l-125 602h-74l-120 -602h-278l245 1228h-359z" />
<glyph unicode="&#x4a1;" horiz-adv-x="1191" d="M150 854l45 228h577l-82 -409h59l208 409h350l-350 -491l2 -2l2 1l149 -590h-368l-48 402h-58l-80 -402h-276l170 854h-300z" />
<glyph unicode="&#x4a2;" horiz-adv-x="1142" d="M19 0l291 1456h277l-125 -626h380l125 626h276l-291 -1456h-276l120 603h-380l-120 -603h-277zM771 -356l111 558h277l-111 -558h-277z" />
<glyph unicode="&#x4a3;" horiz-adv-x="925" d="M0 0l216 1082h276l-87 -436h200l87 436h278l-216 -1082h-278l84 420h-200l-84 -420h-276zM573 -356l111 558h277l-111 -558h-277z" />
<glyph unicode="&#x4a4;" horiz-adv-x="1563" d="M19 0l291 1456h277l-125 -626h380l125 626h723l-45 -227h-445l-2 2l-246 -1231h-276l120 603h-380l-120 -603h-277z" />
<glyph unicode="&#x4a5;" horiz-adv-x="1128" d="M-2 0l216 1082h276l-87 -436h200l87 436h510l-45 -227h-233l-170 -855h-278l84 420h-200l-84 -420h-276z" />
<glyph unicode="&#x4a6;" horiz-adv-x="1687" d="M23 0l291 1456h933l-125 -622h113q208 0 309 -147.5t43 -439.5q-53 -258 -188.5 -423.5t-374.5 -165.5l43 214q103 0 155 102.5t85 257.5q41 206 12 289.5t-130 83.5h-112l-121 -605h-275l246 1228h-381l-246 -1228h-277z" />
<glyph unicode="&#x4a7;" horiz-adv-x="1399" d="M-2 0l216 1082h757l-82 -411h45q206 0 312 -122.5t58 -363.5q-24 -133 -124 -264.5t-251 -196.5l-84 185q70 52 117 117t66 159q25 132 -10 194.5t-130 62.5h-45l-88 -442h-278l170 854h-203l-170 -854h-276z" />
<glyph unicode="&#x4a8;" horiz-adv-x="1319" d="M130 662l43 213q56 281 199 441.5t334 160.5l-48 -237q-54 0 -108 -103t-85 -260l-43 -215q-43 -215 1 -331t170 -116q16 0 31 2t32 7q-68 101 -89 226.5t9 276.5l41 202q50 254 170 400t276 146t228.5 -166t20.5 -427l-35 -176q-31 -151 -87.5 -271.5t-138.5 -214.5 q31 -9 63.5 -13t69.5 -4l-44 -218q-84 0 -156.5 17t-137.5 52q-71 -38 -145 -56.5t-155 -18.5q-231 0 -353 195.5t-63 487.5zM820 531.5q5 -85.5 38 -152.5q51 67 87 149t55 178l42 209q37 189 29 257t-55 68q-36 0 -71.5 -75.5t-66.5 -234.5l-41 -205q-22 -108 -17 -193.5z " />
<glyph unicode="&#x4a9;" horiz-adv-x="1079" d="M91 525l20 102q41 205 170.5 340t279.5 135l-47 -235q-34 -8 -60 -65.5t-49 -172.5l-21 -104q-26 -127 -0.5 -212.5t90.5 -96.5q-22 64 -23.5 140.5t17.5 170.5l32 157q35 179 138 298t220 119q133 0 186 -123.5t11 -339.5l-30 -149q-21 -101 -68.5 -186t-118.5 -154 q27 -10 58 -14.5t67 -4.5l-31 -157q-88 0 -157 13t-124 38q-52 -23 -103.5 -34t-103.5 -11q-213 0 -308.5 145t-44.5 401zM650.5 406q2.5 -50 19.5 -94q28 37 48 85t33 108l30 151q18 91 17.5 151t-20.5 60q-22 0 -45.5 -52.5t-40.5 -140.5l-32 -161q-12 -57 -9.5 -107z" />
<glyph unicode="&#x4aa;" horiz-adv-x="1013" d="M108 584l58 290q58 295 196 449t343 154q207 0 310.5 -139t70.5 -388h-275q24 152 -5 225.5t-129 73.5q-77 0 -138.5 -101t-95.5 -272l-58 -292q-38 -183 -9.5 -280.5t122.5 -97.5q83 0 132.5 68t87.5 221h275q-64 -261 -184.5 -388.5t-329.5 -127.5q-200 0 -312 170 t-59 435zM206 -473l111 558h277l-111 -558h-277z" />
<glyph unicode="&#x4ab;" horiz-adv-x="856" d="M64 470l22 139q37 230 156 361.5t316 131.5q160 0 241.5 -113.5t44.5 -313.5h-257q19 92 2 145.5t-72 53.5q-69 0 -101 -68t-53 -197l-22 -139q-23 -138 -13.5 -201t82.5 -63q48 0 84.5 44.5t44.5 126.5h257q-22 -179 -143 -288t-274 -109q-188 0 -269 135.5t-46 354.5z M143 -473l111 558h277l-111 -558h-277z" />
<glyph unicode="&#x4ac;" horiz-adv-x="1021" d="M207 1228l45 228h928l-45 -228h-328l-245 -1228h-275l245 1228h-325zM381 -356l111 558h277l-111 -558h-277z" />
<glyph unicode="&#x4ad;" horiz-adv-x="855" d="M123 856l45 226h776l-45 -226h-250l-171 -856h-277l171 856h-249zM297 -356l111 558h277l-111 -558h-277z" />
<glyph unicode="&#x4ae;" horiz-adv-x="1011" d="M220 1456h300l73 -583l3 -1l306 584h301l-546 -936l-104 -520h-274l109 544z" />
<glyph unicode="&#x4af;" horiz-adv-x="848" d="M117 -416l84 423l-50 1075h291l-32 -674l-4 -70l3 -1l25 71l233 674h290l-480 -1073l-85 -425h-275z" />
<glyph unicode="&#x4b0;" horiz-adv-x="1011" d="M220 1456h300l73 -584l3 -1l306 585h301l-445 -762h78l-35 -175h-144l-104 -519h-274l104 519h-113l35 175h55z" />
<glyph unicode="&#x4b1;" horiz-adv-x="848" d="M82 13l35 175h76l-42 894h291l-32 -674l-4 -70l3 -1l25 71l233 674h290l-400 -894h91l-35 -175h-134l-2 -4l-85 -425h-275l84 422v7h-119z" />
<glyph unicode="&#x4b2;" horiz-adv-x="1045" d="M-45 0l437 734l-198 722h319l78 -512h3l246 512h320l-430 -722l219 -734h-335l-84 523h-3l-251 -523h-321zM626 -356l111 558h277l-111 -558h-277z" />
<glyph unicode="&#x4b3;" horiz-adv-x="848" d="M-48 0l331 547l-153 535h309l29 -344h3l145 344h311l-321 -535l156 -547h-310l-37 354h-3l-150 -354h-310zM425 -356l111 558h277l-111 -558h-277z" />
<glyph unicode="&#x4b4;" horiz-adv-x="1453" d="M197 0l245 1228h-237l45 228h738l-45 -228h-226l-200 -1001h381l246 1229h277l-246 -1230h166l-134 -577h-258l70 351h-822z" />
<glyph unicode="&#x4b5;" horiz-adv-x="1132" d="M114 0l170 854h-140l45 228h540l-45 -228h-124l-125 -627h203l171 855h278l-171 -857h140l-128 -546h-256l64 321h-622z" />
<glyph unicode="&#x4b6;" horiz-adv-x="1141" d="M230 1014l88 442h276l-88 -442q-32 -155 -2.5 -204t128.5 -49q33 0 91.5 7t107.5 20l134 668h277l-291 -1456h-277l112 561q-48 -13 -105 -20t-94 -7q-205 0 -305.5 117.5t-51.5 362.5zM769 -356l111 558h277l-111 -558h-277z" />
<glyph unicode="&#x4b7;" horiz-adv-x="914" d="M140 746l67 336h277l-67 -336q-24 -119 -3.5 -153.5t96.5 -34.5q18 0 35.5 2t36.5 8l103 514h276l-216 -1082h-276l67 339q-21 -4 -39 -6t-33 -2q-187 0 -277 100.5t-47 314.5zM564 -356l111 558h277l-111 -558h-277z" />
<glyph unicode="&#x4b8;" horiz-adv-x="1111" d="M200 1014l88 442h276l-88 -442q-32 -155 -2.5 -204t128.5 -49q33 0 91.5 7t107.5 20l134 668h277l-291 -1456h-277l112 561q-48 -13 -105 -20t-94 -7q-205 0 -305.5 117.5t-51.5 362.5zM504 295l152 762h148l-152 -762h-148z" />
<glyph unicode="&#x4b9;" horiz-adv-x="918" d="M145 746l67 336h277l-67 -336q-24 -119 -3.5 -153.5t96.5 -34.5q18 0 35.5 2t36.5 8l103 514h276l-216 -1082h-276l67 339q-21 -4 -39 -6t-33 -2q-187 0 -277 100.5t-47 314.5zM329 178l130 652h148l-130 -652h-148z" />
<glyph unicode="&#x4ba;" horiz-adv-x="1153" d="M167 0l291 1456h277l-112 -561q47 12 104 19.5t95 7.5q204 0 304.5 -118t52.5 -362l-88 -442h-276l88 442q31 154 1.5 203.5t-127.5 49.5q-35 0 -93.5 -8t-106.5 -20l-133 -667h-277z" />
<glyph unicode="&#x4bb;" horiz-adv-x="922" d="M-4 0l312 1560h276l-116 -580l3 -1q48 59 104 91t118 32q124 0 178.5 -114t7.5 -354l-127 -634h-277l127 636q29 146 14 192t-74 46q-30 0 -56 -14.5t-51 -42.5l-163 -817h-276z" />
<glyph unicode="&#x4bc;" horiz-adv-x="1225" d="M118 1081h179q-17 -83 -10.5 -133.5t38.5 -74.5q59 285 221 443.5t369 158.5q203 0 284.5 -182t18.5 -498l-31 -156h-633l-7 -36q-38 -188 -1.5 -284.5t176.5 -96.5q78 0 153.5 21t127.5 49l-5 -230q-29 -28 -120 -56.5t-205 -28.5q-245 0 -352.5 171t-49.5 455l12 61 q-110 29 -154.5 137.5t-10.5 279.5zM599 866h356l7 32q33 166 14 248.5t-110 82.5t-163.5 -103t-103.5 -260z" />
<glyph unicode="&#x4bd;" horiz-adv-x="976" d="M35 864h165q-15 -73 -8.5 -120t36.5 -72q47 203 161 316.5t285 113.5q172 0 248.5 -126t41.5 -347l-28 -174h-469v-4q-19 -115 5 -180t105 -65q87 0 140 20t107 58l24 -196q-58 -50 -147 -79t-193 -29q-176 0 -263 133t-54 338l4 24q-105 31 -148 132t-12 257zM498 645 h198l7 40q15 96 1 142.5t-66 46.5q-53 0 -86 -60.5t-54 -168.5z" />
<glyph unicode="&#x4be;" horiz-adv-x="1225" d="M118 1081h179q-17 -83 -10.5 -133.5t38.5 -74.5q59 285 221 443.5t369 158.5q203 0 284.5 -182t18.5 -498l-31 -156h-633l-7 -36q-38 -188 -1.5 -284.5t176.5 -96.5q78 0 153.5 21t127.5 49l-5 -230q-29 -28 -120 -56.5t-205 -28.5q-245 0 -352.5 171t-49.5 455l12 61 q-110 29 -154.5 137.5t-10.5 279.5zM423 -474l111 558h277l-111 -558h-277zM599 866h356l7 32q33 166 14 248.5t-110 82.5t-163.5 -103t-103.5 -260z" />
<glyph unicode="&#x4bf;" horiz-adv-x="976" d="M35 864h165q-15 -73 -8.5 -120t36.5 -72q47 203 161 316.5t285 113.5q172 0 248.5 -126t41.5 -347l-28 -174h-469v-4q-19 -115 5 -180t105 -65q87 0 140 20t107 58l24 -196q-58 -50 -147 -79t-193 -29q-176 0 -263 133t-54 338l4 24q-105 31 -148 132t-12 257zM256 -462 l111 558h277l-111 -558h-277zM498 645h198l7 40q15 96 1 142.5t-66 46.5q-53 0 -86 -60.5t-54 -168.5z" />
<glyph unicode="&#x4c0;" horiz-adv-x="508" d="M30 0l291 1456h277l-291 -1456h-277z" />
<glyph unicode="&#x4c1;" horiz-adv-x="1657" d="M-55 0l494 810l-189 646h343l90 -594h108l119 594h275l-119 -594h105l320 594h343l-442 -647l165 -809h-344l-75 604h-124l-120 -604h-275l120 604h-127l-324 -604h-343zM829 1897h193q-10 -63 7.5 -99.5t71.5 -36.5q50 0 80.5 38t40.5 98h194q-23 -141 -113 -218.5 t-227 -77.5q-132 0 -200.5 81t-46.5 215z" />
<glyph unicode="&#x4c2;" horiz-adv-x="1429" d="M-49 0l350 590l24 -16l3 2l-157 506h351l42 -407h67l82 407h276l-82 -407h70l204 407h350l-358 -505l2 -2l30 15l113 -590h-354l-28 404h-83l-80 -404h-276l80 404h-80l-191 -404h-355zM651 1554h193q-10 -63 7.5 -99.5t71.5 -36.5q50 0 80.5 38t40.5 98h194 q-23 -141 -113 -218.5t-227 -77.5q-132 0 -200.5 81t-46.5 215z" />
<glyph unicode="&#x4c3;" horiz-adv-x="1072" d="M18 0l291 1456h276l-119 -593h55l347 593h343l-463 -638q158 -38 226.5 -181t19.5 -394q-53 -259 -188 -424.5t-373 -165.5l43 215q103 0 155 103t85 257q41 205 11.5 289t-129.5 84h-184l-120 -601h-276z" />
<glyph unicode="&#x4c4;" horiz-adv-x="957" d="M21 0l216 1082h276l-82 -409h52l215 409h350l-358 -494q106 -53 150 -161t11 -275q-24 -132 -123.5 -262t-250.5 -195l-84 186q70 51 116.5 115t64.5 156q25 129 -2.5 185.5t-108.5 64.5h-86l-80 -402h-276z" />
<glyph unicode="&#x4c5;" horiz-adv-x="1143" d="M-36 0l45 227h31q103 11 148 113.5t127 461.5l150 654h779l-291 -1456h-277l245 1228h-232l-97 -426q-104 -444 -233 -623t-329 -179h-66zM843 -336q44 72 72.5 143t47.5 164l45 226h244l-43 -211q-23 -111 -92 -216t-157 -182z" />
<glyph unicode="&#x4c6;" horiz-adv-x="927" d="M-58 0l42 230h22q68 0 97 69t89 319l106 464h675l-216 -1082h-277l170 854h-127l-55 -236q-79 -334 -183 -476t-306 -142h-37zM648 -336q44 72 72.5 143t47.5 164l45 226h244l-43 -211q-23 -111 -92 -216t-157 -182z" />
<glyph unicode="&#x4c7;" horiz-adv-x="1145" d="M20 0l291 1456h277l-125 -626h380l125 626h277l-298 -1489q-42 -210 -142 -307t-255 -97q-31 0 -58.5 4.5t-57.5 13.5l56 222q17 -6 33.5 -9t38.5 -3q33 0 61.5 45.5t46.5 130.5l128 636h-380l-121 -603h-277z" />
<glyph unicode="&#x4c8;" horiz-adv-x="922" d="M-2 0l216 1082h277l-87 -436h200l87 436h277l-223 -1115q-42 -210 -141.5 -307t-254.5 -97q-31 0 -58.5 4.5t-57.5 13.5l56 222q18 -6 34 -9t38 -3q33 0 61 45t46 131l91 453h-200l-84 -420h-277z" />
<glyph unicode="&#x4c9;" horiz-adv-x="1142" d="M19 0l291 1456h277l-125 -626h380l125 626h276l-291 -1456h-276l120 603h-380l-120 -603h-277zM843 -336q44 72 72.5 143t47.5 164l45 226h244l-43 -211q-23 -111 -92 -216t-157 -182z" />
<glyph unicode="&#x4ca;" horiz-adv-x="925" d="M0 0l216 1082h276l-87 -436h200l87 436h278l-216 -1082h-278l84 420h-200l-84 -420h-276zM645 -336q44 72 72.5 143t47.5 164l45 226h244l-43 -211q-23 -111 -92 -216t-157 -182z" />
<glyph unicode="&#x4cb;" horiz-adv-x="1141" d="M230 1014l88 442h276l-88 -442q-32 -155 -2.5 -204t128.5 -49q33 0 91.5 7t107.5 20l134 668h277l-291 -1456h-277l112 561q-48 -13 -105 -20t-94 -7q-205 0 -305.5 117.5t-51.5 362.5zM427 -356l111 558h277l-111 -558h-277z" />
<glyph unicode="&#x4cc;" horiz-adv-x="914" d="M140 746l67 336h277l-67 -336q-24 -119 -3.5 -153.5t96.5 -34.5q18 0 35.5 2t36.5 8l103 514h276l-216 -1082h-276l67 339q-21 -4 -39 -6t-33 -2q-187 0 -277 100.5t-47 314.5zM222 -356l111 558h277l-111 -558h-277z" />
<glyph unicode="&#x4cd;" horiz-adv-x="1359" d="M14 0l291 1456h359l3 -1073l3 -1l435 1074h361l-291 -1456h-276l85 423l126 521l-3 1l-423 -945h-183l-43 933h-3l-80 -510l-85 -423h-276zM1066 -336q44 72 72.5 143t47.5 164l45 226h244l-43 -211q-23 -111 -92 -216t-157 -182z" />
<glyph unicode="&#x4ce;" horiz-adv-x="1241" d="M19 0l216 1082h340l16 -745h3l315 745h348l-216 -1082h-277l106 529l-3 1l-250 -530h-184l-35 495h-3l-99 -495h-277zM931 -336q44 72 72.5 143t47.5 164l45 226h244l-43 -211q-23 -111 -92 -216t-157 -182z" />
<glyph unicode="&#x4cf;" horiz-adv-x="508" d="M30 0l291 1456h277l-291 -1456h-277z" />
<glyph unicode="&#x4d0;" horiz-adv-x="1055" d="M-67 0l658 1456h286l74 -1456h-277l-5 311h-330l-128 -311h-278zM433 538h232l-9 533h-3zM514 1897h193q-10 -63 7.5 -99.5t71.5 -36.5q50 0 80.5 38t40.5 98h194q-23 -141 -113 -218.5t-227 -77.5q-132 0 -200.5 81t-46.5 215z" />
<glyph unicode="&#x4d1;" horiz-adv-x="875" d="M34 302q35 173 139 254t295 81h87l18 88q17 86 4 125t-59 39q-36 0 -60.5 -33.5t-37.5 -98.5h-277q32 159 147.5 252t287.5 93q147 0 227.5 -98t44.5 -281l-88 -438q-17 -84 -19.5 -148t5.5 -137h-275q-5 28 -7.5 57.5t-1.5 57.5l-3 1q-46 -62 -101.5 -99t-120.5 -37 q-116 0 -175.5 87.5t-29.5 234.5zM313 315q-12 -59 1.5 -90.5t48.5 -31.5q31 0 62.5 20t55.5 54l42 207h-87q-48 0 -78.5 -44.5t-44.5 -114.5zM359 1575h193q-10 -63 7.5 -99.5t71.5 -36.5q50 0 80.5 38t40.5 98h194q-23 -141 -113 -218.5t-227 -77.5q-132 0 -200.5 81 t-46.5 215z" />
<glyph unicode="&#x4d2;" horiz-adv-x="1055" d="M-67 0l658 1456h286l74 -1456h-277l-5 311h-330l-128 -311h-278zM433 538h232l-9 533h-3zM435 1606l32 198h237l-32 -198h-237zM843 1606l32 198h238l-32 -198h-238z" />
<glyph unicode="&#x4d3;" horiz-adv-x="875" d="M34 302q35 173 139 254t295 81h87l18 88q17 86 4 125t-59 39q-36 0 -60.5 -33.5t-37.5 -98.5h-277q32 159 147.5 252t287.5 93q147 0 227.5 -98t44.5 -281l-88 -438q-17 -84 -19.5 -148t5.5 -137h-275q-5 28 -7.5 57.5t-1.5 57.5l-3 1q-46 -62 -101.5 -99t-120.5 -37 q-116 0 -175.5 87.5t-29.5 234.5zM280 1284l32 198h237l-32 -198h-237zM313 315q-12 -59 1.5 -90.5t48.5 -31.5q31 0 62.5 20t55.5 54l42 207h-87q-48 0 -78.5 -44.5t-44.5 -114.5zM688 1284l32 198h238l-32 -198h-238z" />
<glyph unicode="&#x4d4;" horiz-adv-x="1524" d="M-71 0l860 1456h826l-46 -231h-428l-61 -363h354l-46 -230h-347l-68 -402h443l-46 -230h-711l57 339h-277l-188 -339h-322zM572 578h184l79 466l-3 1z" />
<glyph unicode="&#x4d5;" horiz-adv-x="1356" d="M20 317q34 173 148 252.5t317 79.5h112l11 56q17 86 2.5 127.5t-57.5 41.5t-77 -37t-44 -92l-273 18q31 161 148.5 250t293.5 89q69 0 124.5 -21t96.5 -62q55 42 119 62.5t141 20.5q158 0 231.5 -131.5t28.5 -355.5l-32 -160h-475q-21 -125 5 -187t112 -62q65 0 115.5 19 t116.5 59l32 -183q-58 -50 -151.5 -86t-190.5 -36q-93 0 -160.5 37.5t-108.5 111.5q-61 -67 -143.5 -108t-187.5 -41q-147 0 -216 91t-38 247zM297 313q-14 -66 3 -97.5t70 -31.5q30 0 73.5 25t77.5 61l39 196h-111q-54 0 -97 -45t-55 -108zM875 644h202l5 27 q21 102 10.5 152.5t-55.5 50.5q-58 0 -96 -59.5t-66 -170.5z" />
<glyph unicode="&#x4d6;" horiz-adv-x="931" d="M19 0l291 1456h784l-45 -228h-508l-72 -362h431l-45 -227h-431l-83 -412h509l-45 -227h-786zM462 1897h193q-10 -63 7.5 -99.5t71.5 -36.5q50 0 80.5 38t40.5 98h194q-23 -141 -113 -218.5t-227 -77.5q-132 0 -200.5 81t-46.5 215z" />
<glyph unicode="&#x4d7;" horiz-adv-x="868" d="M70 451l24 152q37 233 155 366t304 133q172 0 248.5 -126t41.5 -347l-28 -174h-469v-4q-19 -115 5 -180t105 -65q87 0 140 20t107 58l24 -196q-58 -50 -147 -79t-193 -29q-176 0 -263 133t-54 338zM315 1576h193q-10 -63 7.5 -99.5t71.5 -36.5q50 0 80.5 38t40.5 98h194 q-23 -141 -113 -218.5t-227 -77.5q-132 0 -200.5 81t-46.5 215zM377 645h198l7 40q15 96 1 142.5t-66 46.5q-53 0 -86 -60.5t-54 -168.5z" />
<glyph unicode="&#x4d8;" horiz-adv-x="1118" d="M107 658l31 157h696q39 203 -4 309.5t-198 106.5q-86 0 -165 -21t-133 -49l5 230q32 27 126.5 56.5t215.5 29.5q258 0 372.5 -183.5t54.5 -484.5l-33 -163q-64 -318 -233.5 -492.5t-383.5 -174.5q-228 0 -321.5 180.5t-29.5 498.5zM358.5 306.5q29.5 -82.5 148.5 -82.5 q88 0 163 101t117 264h-417l-7 -34q-34 -166 -4.5 -248.5z" />
<glyph unicode="&#x4d9;" horiz-adv-x="872" d="M80 466l32 161h467q17 119 -8.5 184t-102.5 65q-68 0 -118.5 -19t-118.5 -59l-34 181q61 53 153 88.5t197 35.5q178 0 261 -149.5t38 -378.5l-8 -41q-54 -266 -180 -410t-313 -143q-167 0 -238.5 129.5t-26.5 355.5zM327 255.5q10 -48.5 63 -48.5q46 0 83 60.5t66 169.5 h-195l-5 -27q-22 -106 -12 -154.5z" />
<glyph unicode="&#x4da;" horiz-adv-x="1118" d="M107 658l31 157h696q39 203 -4 309.5t-198 106.5q-86 0 -165 -21t-133 -49l5 230q32 27 126.5 56.5t215.5 29.5q258 0 372.5 -183.5t54.5 -484.5l-33 -163q-64 -318 -233.5 -492.5t-383.5 -174.5q-228 0 -321.5 180.5t-29.5 498.5zM358.5 306.5q29.5 -82.5 148.5 -82.5 q88 0 163 101t117 264h-417l-7 -34q-34 -166 -4.5 -248.5zM416 1550l32 198h237l-32 -198h-237zM824 1550l32 198h238l-32 -198h-238z" />
<glyph unicode="&#x4db;" horiz-adv-x="872" d="M80 466l32 161h467q17 119 -8.5 184t-102.5 65q-68 0 -118.5 -19t-118.5 -59l-34 181q61 53 153 88.5t197 35.5q178 0 261 -149.5t38 -378.5l-8 -41q-54 -266 -180 -410t-313 -143q-167 0 -238.5 129.5t-26.5 355.5zM276 1285l32 198h237l-32 -198h-237zM327 255.5 q10 -48.5 63 -48.5q46 0 83 60.5t66 169.5h-195l-5 -27q-22 -106 -12 -154.5zM684 1285l32 198h238l-32 -198h-238z" />
<glyph unicode="&#x4dc;" horiz-adv-x="1657" d="M-55 0l494 810l-189 646h343l90 -594h108l119 594h275l-119 -594h105l320 594h343l-442 -647l165 -809h-344l-75 604h-124l-120 -604h-275l120 604h-127l-324 -604h-343zM750 1606l32 198h237l-32 -198h-237zM1158 1606l32 198h238l-32 -198h-238z" />
<glyph unicode="&#x4dd;" horiz-adv-x="1429" d="M-49 0l350 590l24 -16l3 2l-157 506h351l42 -407h67l82 407h276l-82 -407h70l204 407h350l-358 -505l2 -2l30 15l113 -590h-354l-28 404h-83l-80 -404h-276l80 404h-80l-191 -404h-355zM572 1263l32 198h237l-32 -198h-237zM980 1263l32 198h238l-32 -198h-238z" />
<glyph unicode="&#x4de;" horiz-adv-x="1009" d="M59 404h277q-19 -93 10 -145.5t96 -52.5q70 0 126.5 57.5t74.5 146.5q25 127 0.5 174.5t-100.5 47.5h-136l31 152l14 69h136q61 0 104.5 53.5t63.5 151.5q17 90 -8 140.5t-97 50.5q-55 0 -103 -50.5t-65 -135.5h-277q40 203 175.5 308.5t314.5 105.5q185 0 281 -108 t56 -307q-22 -110 -84 -191.5t-155 -127.5q82 -45 115.5 -130t9.5 -207q-44 -218 -181.5 -322.5t-340.5 -104.5q-166 0 -273.5 107t-64.5 318zM415 1627l32 198h237l-32 -198h-237zM823 1627l32 198h238l-32 -198h-238z" />
<glyph unicode="&#x4df;" horiz-adv-x="844" d="M38 318h276q-13 -62 3 -94.5t68 -32.5q42 0 70 38.5t40 97.5q15 76 0.5 106t-59.5 30h-116l10 54l10 48l4 21l12 57h116q34 0 58.5 32t36.5 89q11 60 4 92.5t-47 32.5q-38 0 -67 -31t-40 -86h-276q32 164 143 246t266 82q159 0 243.5 -81.5t54.5 -231.5 q-16 -81 -62 -140.5t-116 -93.5q63 -34 88 -96.5t8 -152.5q-33 -164 -149.5 -243.5t-290.5 -79.5q-141 0 -231.5 85.5t-56.5 251.5zM279 1283l32 198h237l-32 -198h-237zM687 1283l32 198h238l-32 -198h-238z" />
<glyph unicode="&#x4e0;" horiz-adv-x="942" d="M65 404h277q-20 -94 3 -146t83 -52q66 0 120 57.5t72 146.5q31 159 -2 219t-132 60h-108l34 173l1 5l304 361h-430l45 228h747l-38 -188l-359 -405q134 -38 192.5 -154.5t21.5 -302.5q-44 -218 -179 -322.5t-334 -104.5q-159 0 -260 107t-58 318z" />
<glyph unicode="&#x4e1;" horiz-adv-x="942" d="M-10 29h277q-19 -91 4 -143.5t83 -52.5q66 0 119.5 57.5t71.5 145.5q32 160 1 219.5t-131 59.5h-113l12 60l23 117l302 362h-435l45 228h755l-38 -189l-356 -405q134 -37 191 -153t20 -304q-43 -215 -178.5 -320.5t-334.5 -105.5q-159 0 -259 107.5t-59 316.5z" />
<glyph unicode="&#x4e2;" horiz-adv-x="1126" d="M8 0l291 1456h276l-173 -867l2 -1l549 868h277l-291 -1456h-277l172 864l-2 1l-548 -865h-276zM496 1617l25 160h600l-25 -160h-600z" />
<glyph unicode="&#x4e3;" horiz-adv-x="926" d="M0 0l216 1082h277l-110 -550l3 -1l310 551h277l-216 -1082h-277l110 551l-3 1l-310 -552h-277zM335 1275l25 160h600l-25 -160h-600z" />
<glyph unicode="&#x4e4;" horiz-adv-x="1126" d="M8 0l291 1456h276l-173 -867l2 -1l549 868h277l-291 -1456h-277l172 864l-2 1l-548 -865h-276zM468 1606l32 198h237l-32 -198h-237zM876 1606l32 198h238l-32 -198h-238z" />
<glyph unicode="&#x4e5;" horiz-adv-x="926" d="M0 0l216 1082h277l-110 -550l3 -1l310 551h277l-216 -1082h-277l110 551l-3 1l-310 -552h-277zM307 1263l32 198h237l-32 -198h-237zM715 1263l32 198h238l-32 -198h-238z" />
<glyph unicode="&#x4e6;" horiz-adv-x="1119" d="M112 600l52 259q59 295 206 456.5t363 161.5q205 0 321.5 -178.5t63.5 -443.5l-52 -259q-59 -295 -211 -456t-369 -161q-203 0 -315.5 177t-58.5 444zM387 600q-37 -184 2.5 -288.5t141.5 -104.5q88 0 155 106t103 283l52 261q36 180 -7.5 285.5t-145.5 105.5 q-88 0 -150.5 -104t-98.5 -283zM478 1627l32 198h237l-32 -198h-237zM886 1627l32 198h238l-32 -198h-238z" />
<glyph unicode="&#x4e7;" horiz-adv-x="922" d="M67 473l21 134q36 231 159 363t319 132q186 0 271 -137.5t50 -357.5l-21 -134q-38 -233 -160 -363t-317 -130q-188 0 -273 136t-49 357zM269 1284l32 198h237l-32 -198h-237zM336 272.5q15 -66.5 89 -66.5q66 0 105 70.5t60 196.5l21 134q21 130 5.5 198.5t-86.5 68.5 q-68 0 -107.5 -72t-58.5 -195l-21 -134q-22 -134 -7 -200.5zM677 1284l32 198h238l-32 -198h-238z" />
<glyph unicode="&#x4e8;" horiz-adv-x="1121" d="M116 523l81 408q56 281 202.5 413.5t366.5 132.5q202 0 305 -144t52 -402l-81 -408q-57 -281 -204.5 -412.5t-368.5 -131.5q-203 0 -304 142.5t-49 401.5zM385.5 277.5q29.5 -70.5 128.5 -70.5q89 0 153.5 77.5t97.5 238.5l24 122h-373l-24 -122q-36 -175 -6.5 -245.5z M451 820h373l23 113q34 173 3 244t-129 71q-90 0 -152.5 -77.5t-94.5 -237.5z" />
<glyph unicode="&#x4e9;" horiz-adv-x="918" d="M65 473l21 134q36 231 159 363t319 132q186 0 271 -137.5t50 -357.5l-21 -134q-38 -233 -160 -363t-317 -130q-188 0 -273 136t-49 357zM336 266.5q16 -60.5 87 -60.5q63 0 101 63.5t59 179.5h-246q-17 -122 -1 -182.5zM365 625h247q17 122 1 185.5t-85 63.5 q-66 0 -104.5 -67t-58.5 -182z" />
<glyph unicode="&#x4ea;" horiz-adv-x="1121" d="M116 523l81 408q56 281 202.5 413.5t366.5 132.5q202 0 305 -144t52 -402l-81 -408q-57 -281 -204.5 -412.5t-368.5 -131.5q-203 0 -304 142.5t-49 401.5zM385.5 277.5q29.5 -70.5 128.5 -70.5q89 0 153.5 77.5t97.5 238.5l24 122h-373l-24 -122q-36 -175 -6.5 -245.5z M451 820h373l23 113q34 173 3 244t-129 71q-90 0 -152.5 -77.5t-94.5 -237.5zM490 1601l32 198h237l-32 -198h-237zM898 1601l32 198h238l-32 -198h-238z" />
<glyph unicode="&#x4eb;" horiz-adv-x="918" d="M65 473l21 134q36 231 159 363t319 132q186 0 271 -137.5t50 -357.5l-21 -134q-38 -233 -160 -363t-317 -130q-188 0 -273 136t-49 357zM299 1312l32 198h237l-32 -198h-237zM336 266.5q16 -60.5 87 -60.5q63 0 101 63.5t59 179.5h-246q-17 -122 -1 -182.5zM365 625h247 q17 122 1 185.5t-85 63.5q-66 0 -104.5 -67t-58.5 -182zM707 1312l32 198h238l-32 -198h-238z" />
<glyph unicode="&#x4ec;" horiz-adv-x="999" d="M70 482h277q-32 -158 -10.5 -216.5t108.5 -58.5q76 0 133.5 100t92.5 274l7 35h-315l46 228h315l6 30q37 190 22 283t-98 93q-79 0 -129 -66t-78 -211h-277q53 265 184.5 385t345.5 120q187 0 273 -167.5t33 -436.5l-58 -291q-59 -293 -201.5 -448t-346.5 -155 q-197 0 -288.5 128t-41.5 374zM409 1628l32 198h237l-32 -198h-237zM817 1628l32 198h238l-32 -198h-238z" />
<glyph unicode="&#x4ed;" horiz-adv-x="837" d="M44 402h259q-20 -99 -9 -147.5t62 -48.5q56 0 96.5 67.5t70.5 185.5h-159l34 169h159q20 123 7 184.5t-76 61.5q-45 0 -76.5 -43t-46.5 -123h-259q37 188 152.5 291t274.5 103q181 0 258 -154t29 -394l-6 -28q-53 -262 -180.5 -404.5t-322.5 -142.5q-153 0 -229.5 113 t-37.5 310zM269 1284l32 198h237l-32 -198h-237zM677 1284l32 198h238l-32 -198h-238z" />
<glyph unicode="&#x4ee;" horiz-adv-x="1025" d="M143 -17l42 227q6 -3 25 -3.5t32 -0.5q55 0 90 35.5t64 109.5l22 49h-4l-168 1056h295l59 -653l3 -1l305 654h290l-594 -1173q-87 -149 -169 -226.5t-208 -77.5q-18 0 -43 1.5t-41 2.5zM450 1617l25 160h600l-25 -160h-600z" />
<glyph unicode="&#x4ef;" horiz-adv-x="848" d="M-81 -413l76 212l19.5 -4.5t14.5 -1.5q52 0 84 28.5t60 89.5l36 76l-67 1095h297l-22 -604h3l249 604h297l-576 -1245q-53 -113 -134 -193.5t-213 -80.5q-32 0 -56 5.5t-68 18.5zM290 1275l25 160h600l-25 -160h-600z" />
<glyph unicode="&#x4f0;" horiz-adv-x="1025" d="M143 -17l42 227q6 -3 25 -3.5t32 -0.5q55 0 90 35.5t64 109.5l22 49h-4l-168 1056h295l59 -653l3 -1l305 654h290l-594 -1173q-87 -149 -169 -226.5t-208 -77.5q-18 0 -43 1.5t-41 2.5zM422 1606l32 198h237l-32 -198h-237zM830 1606l32 198h238l-32 -198h-238z" />
<glyph unicode="&#x4f1;" horiz-adv-x="848" d="M-81 -413l76 212l19.5 -4.5t14.5 -1.5q52 0 84 28.5t60 89.5l36 76l-67 1095h297l-22 -604h3l249 604h297l-576 -1245q-53 -113 -134 -193.5t-213 -80.5q-32 0 -56 5.5t-68 18.5zM263 1263l32 198h237l-32 -198h-237zM671 1263l32 198h238l-32 -198h-238z" />
<glyph unicode="&#x4f2;" horiz-adv-x="1025" d="M143 -17l42 227q6 -3 25 -3.5t32 -0.5q55 0 90 35.5t64 109.5l22 49h-4l-168 1056h295l59 -653l3 -1l305 654h290l-594 -1173q-87 -149 -169 -226.5t-208 -77.5q-18 0 -43 1.5t-41 2.5zM483 1601l199 266h244l-240 -266h-203zM774 1601l234 266h244l-273 -266h-205z" />
<glyph unicode="&#x4f3;" horiz-adv-x="848" d="M-81 -413l76 212l19.5 -4.5t14.5 -1.5q52 0 84 28.5t60 89.5l36 76l-67 1095h297l-22 -604h3l249 604h297l-576 -1245q-53 -113 -134 -193.5t-213 -80.5q-32 0 -56 5.5t-68 18.5zM323 1258l199 266h244l-240 -266h-203zM614 1258l234 266h244l-273 -266h-205z" />
<glyph unicode="&#x4f4;" horiz-adv-x="1141" d="M230 1014l88 442h276l-88 -442q-32 -155 -2.5 -204t128.5 -49q33 0 91.5 7t107.5 20l134 668h277l-291 -1456h-277l112 561q-48 -13 -105 -20t-94 -7q-205 0 -305.5 117.5t-51.5 362.5zM528 1606l32 198h237l-32 -198h-237zM936 1606l32 198h238l-32 -198h-238z" />
<glyph unicode="&#x4f5;" horiz-adv-x="914" d="M140 746l67 336h277l-67 -336q-24 -119 -3.5 -153.5t96.5 -34.5q18 0 35.5 2t36.5 8l103 514h276l-216 -1082h-276l67 339q-21 -4 -39 -6t-33 -2q-187 0 -277 100.5t-47 314.5zM297 1263l32 198h237l-32 -198h-237zM705 1263l32 198h238l-32 -198h-238z" />
<glyph unicode="&#x4f6;" horiz-adv-x="909" d="M20 0l291 1456h748l-45 -228h-470l-246 -1228h-278zM116 -356l111 558h277l-111 -558h-277z" />
<glyph unicode="&#x4f7;" horiz-adv-x="688" d="M0 0l216 1082h586l-45 -228h-310l-171 -854h-276zM53 -356l111 558h277l-111 -558h-277z" />
<glyph unicode="&#x4f8;" horiz-adv-x="1423" d="M19 0l291 1456h278l-107 -536h157q190 0 289 -125t58 -330q-46 -226 -185.5 -345.5t-345.5 -119.5h-435zM342 227h157q72 0 130.5 68.5t79.5 171.5q21 107 -8 166.5t-108 59.5h-158zM614 1606l32 198h237l-32 -198h-237zM956 0l291 1456h277l-291 -1456h-277zM1022 1606 l32 198h238l-32 -198h-238z" />
<glyph unicode="&#x4f9;" horiz-adv-x="1382" d="M19 0l216 1082h277l-64 -319h124q168 0 251.5 -105.5t49.5 -278.5q-37 -184 -154.5 -281.5t-299.5 -97.5h-400zM341 225h123q49 0 84.5 43.5t49.5 110.5q15 75 -1.5 116.5t-70.5 41.5h-123zM519 1263l32 198h237l-32 -198h-237zM904 0l216 1082h278l-216 -1082h-278z M927 1263l32 198h238l-32 -198h-238z" />
<glyph unicode="&#x4fa;" horiz-adv-x="995" d="M105 0l291 1456h748l-45 -228h-470l-246 -1228h-278zM114 671l35 175h531l-35 -175h-531zM125 -419l56 224q20 -6 35.5 -9.5t36.5 -3.5q33 0 61 45t45 130l59 291h276l-59 -291q-42 -210 -141 -307t-253 -97q-31 0 -58 4.5t-58 13.5z" />
<glyph unicode="&#x4fb;" horiz-adv-x="700" d="M51 -426l56 224q20 -6 35.5 -9.5t36.5 -3.5q33 0 61 45t45 130l59 291h276l-59 -291q-42 -210 -141 -307t-253 -97q-31 0 -58 4.5t-58 13.5zM60 493l35 175h531l-35 -175h-531zM75 0l216 1082h586l-45 -228h-310l-171 -854h-276z" />
<glyph unicode="&#x4fc;" horiz-adv-x="1045" d="M-45 0l437 734l-198 722h319l78 -512h3l246 512h320l-430 -722l219 -734h-335l-84 523h-3l-251 -523h-321zM566 -419l56 224q20 -6 35.5 -9.5t36.5 -3.5q33 0 61 45t45 130l59 291h276l-59 -291q-42 -210 -141 -307t-253 -97q-31 0 -58 4.5t-58 13.5z" />
<glyph unicode="&#x4fd;" horiz-adv-x="848" d="M-48 0l331 547l-153 535h309l29 -344h3l145 344h311l-321 -535l156 -547h-310l-37 354h-3l-150 -354h-310zM365 -419l56 224q20 -6 35.5 -9.5t36.5 -3.5q33 0 61 45t45 130l59 291h276l-59 -291q-42 -210 -141 -307t-253 -97q-31 0 -58 4.5t-58 13.5z" />
<glyph unicode="&#x4fe;" horiz-adv-x="1045" d="M-45 0l392 659h-59l35 175h41l-170 622h319l78 -512h3l246 512h320l-371 -622h65l-35 -175h-67l197 -659h-335l-84 523h-3l-251 -523h-321z" />
<glyph unicode="&#x4ff;" horiz-adv-x="848" d="M-48 0l283 468h-67l35 175h52l-125 439h309l29 -344h3l145 344h311l-264 -439h71l-35 -175h-71l134 -468h-310l-37 354h-3l-150 -354h-310z" />
<glyph unicode="&#x2000;" horiz-adv-x="956" />
<glyph unicode="&#x2001;" horiz-adv-x="1913" />
<glyph unicode="&#x2002;" horiz-adv-x="956" />
<glyph unicode="&#x2003;" horiz-adv-x="1913" />
<glyph unicode="&#x2004;" horiz-adv-x="637" />
<glyph unicode="&#x2005;" horiz-adv-x="478" />
<glyph unicode="&#x2006;" horiz-adv-x="318" />
<glyph unicode="&#x2007;" horiz-adv-x="318" />
<glyph unicode="&#x2008;" horiz-adv-x="239" />
<glyph unicode="&#x2009;" horiz-adv-x="382" />
<glyph unicode="&#x200a;" horiz-adv-x="106" />
<glyph unicode="&#x2010;" horiz-adv-x="711" d="M140 514l45 228h457l-45 -228h-457z" />
<glyph unicode="&#x2011;" horiz-adv-x="711" d="M140 514l45 228h457l-45 -228h-457z" />
<glyph unicode="&#x2012;" horiz-adv-x="711" d="M140 514l45 228h457l-45 -228h-457z" />
<glyph unicode="&#x2013;" horiz-adv-x="1115" d="M192 600l60 230h829l-60 -230h-829z" />
<glyph unicode="&#x2014;" horiz-adv-x="1311" d="M206 600l74 230h1021l-74 -230h-1021z" />
<glyph unicode="&#x2018;" horiz-adv-x="437" d="M209 1016l39 195q21 109 84.5 210t145.5 173l117 -75q-43 -71 -72 -142.5t-48 -165.5l-39 -195h-227z" />
<glyph unicode="&#x2019;" horiz-adv-x="428" d="M188 1062q42 69 71 140t49 167l38 191h227l-38 -191q-22 -109 -85.5 -210t-144.5 -173z" />
<glyph unicode="&#x201a;" horiz-adv-x="473" d="M-57 -240q44 73 72.5 144t47.5 163l46 228h227l-47 -228q-22 -107 -85 -208t-144 -174z" />
<glyph unicode="&#x201c;" horiz-adv-x="741" d="M215 1016l39 195q21 109 84.5 210t145.5 173l117 -75q-43 -71 -72 -142.5t-48 -165.5l-39 -195h-227zM501 1016l39 195q21 109 84.5 210t145.5 173l117 -75q-43 -71 -72 -142.5t-48 -165.5l-39 -195h-227z" />
<glyph unicode="&#x201d;" horiz-adv-x="746" d="M201 1062q42 69 71 140t49 167l38 191h227l-38 -191q-22 -109 -85.5 -210t-144.5 -173zM492 1062q42 69 71 140t49 167l38 191h227l-38 -191q-22 -109 -85.5 -210t-144.5 -173z" />
<glyph unicode="&#x201e;" horiz-adv-x="740" d="M-57 -240q44 73 72.5 144t47.5 163l46 228h227l-47 -228q-22 -107 -85 -208t-144 -174zM232 -240q43 71 72.5 142.5t48.5 164.5l46 228h228l-47 -228q-22 -107 -85.5 -208t-144.5 -174z" />
<glyph unicode="&#x2022;" horiz-adv-x="644" d="M179 710l19 96q21 109 87 168.5t162 59.5q90 0 135 -63.5t25 -164.5l-19 -96q-23 -110 -87.5 -167.5t-162.5 -57.5q-88 0 -133.5 62.5t-25.5 162.5z" />
<glyph unicode="&#x2026;" horiz-adv-x="1259" d="M36 0l52 258h270l-52 -258h-270zM418 0l52 258h270l-52 -258h-270zM796 0l52 258h270l-52 -258h-270z" />
<glyph unicode="&#x202f;" horiz-adv-x="382" />
<glyph unicode="&#x2039;" horiz-adv-x="532" d="M123 541l1 6l3 13l286 389h170l-252 -399l93 -397h-170z" />
<glyph unicode="&#x203a;" horiz-adv-x="510" d="M18 152l251 398l-91 399h169l131 -389l-2 -6h1l-3 -13l-287 -389h-169z" />
<glyph unicode="&#x205f;" horiz-adv-x="478" />
<glyph unicode="&#x20ac;" horiz-adv-x="901" d="M81 484l30 151h103l31 153h-103l30 152h104l3 16q52 258 193 389.5t343 131.5q45 0 90 -8t93 -23l-65 -232q-38 16 -78.5 25.5t-84.5 9.5q-70 0 -128.5 -77t-84.5 -214l-4 -18h290l-30 -152h-290l-31 -153h290l-30 -151h-291l-2 -12q-29 -142 -2 -204t106 -62 q42 0 87.5 8.5t87.5 24.5l-27 -229q-48 -15 -96 -23t-97 -8q-186 0 -284 133t-52 360l2 12h-103z" />
<glyph unicode="&#x2122;" horiz-adv-x="1032" d="M275 917l87 433h-87l21 106h309l-21 -106h-90l-87 -433h-132zM549 914l108 542h141l4 -364l3 -1l149 365h138l-108 -542h-117l47 236l-3 1l-111 -237h-63l-18 256h-3l-51 -256h-116z" />
<glyph unicode="&#x25fc;" horiz-adv-x="1080" d="M0 0v1080h1080v-1080h-1080z" />
</font>
</defs>
</svg>
